<?xml version="1.0" encoding="UTF-8" standalone="no"?>
<!DOCTYPE svg PUBLIC "-//W3C//DTD SVG 1.1//EN"
 "http://www.w3.org/Graphics/SVG/1.1/DTD/svg11.dtd">
<!-- Generated by graphviz version 2.36.0 (20140111.2315)
 -->
<!-- Title: controllers_diagram Pages: 1 -->
<svg width="1031pt" height="1067pt"
 viewBox="0.00 0.00 1031.00 1067.00" xmlns="http://www.w3.org/2000/svg" xmlns:xlink="http://www.w3.org/1999/xlink">
<g id="graph0" class="graph" transform="scale(1 1) rotate(0) translate(4 1063)">
<title>controllers_diagram</title>
<polygon fill="none" stroke="none" points="-4,4 -4,-1063 1027,-1063 1027,4 -4,4"/>
<!-- _diagram_info -->
<g id="node1" class="node"><title>_diagram_info</title>
<text text-anchor="start" x="141" y="-196.6" font-family="Times,serif" font-size="13.00">Controllers diagram</text>
<text text-anchor="start" x="141" y="-182.6" font-family="Times,serif" font-size="13.00">Date: Apr 01 2016 &#45; 15:24</text>
<text text-anchor="start" x="141" y="-168.6" font-family="Times,serif" font-size="13.00">Migration version: 20160401132451</text>
<text text-anchor="start" x="141" y="-154.6" font-family="Times,serif" font-size="13.00">Generated by RailRoady 1.4.2</text>
<text text-anchor="start" x="141" y="-140.6" font-family="Times,serif" font-size="13.00">http://railroady.prestonlee.com</text>
</g>
<!-- EnquiriesController -->
<g id="node2" class="node"><title>EnquiriesController</title>
<path fill="none" stroke="black" d="M715,-76.5C715,-76.5 815,-76.5 815,-76.5 821,-76.5 827,-82.5 827,-88.5 827,-88.5 827,-187.5 827,-187.5 827,-193.5 821,-199.5 815,-199.5 815,-199.5 715,-199.5 715,-199.5 709,-199.5 703,-193.5 703,-187.5 703,-187.5 703,-88.5 703,-88.5 703,-82.5 709,-76.5 715,-76.5"/>
<text text-anchor="middle" x="765" y="-184.3" font-family="Times,serif" font-size="14.00">EnquiriesController</text>
<polyline fill="none" stroke="black" points="703,-176.5 827,-176.5 "/>
<text text-anchor="start" x="711" y="-161.3" font-family="Times,serif" font-size="14.00">create</text>
<text text-anchor="start" x="711" y="-146.3" font-family="Times,serif" font-size="14.00">index</text>
<polyline fill="none" stroke="black" points="703,-138.5 827,-138.5 "/>
<polyline fill="none" stroke="black" points="703,-114.5 827,-114.5 "/>
<text text-anchor="start" x="711" y="-99.3" font-family="Times,serif" font-size="14.00">_layout</text>
<text text-anchor="start" x="711" y="-84.3" font-family="Times,serif" font-size="14.00">enquiry_params</text>
</g>
<!-- UserSystem::AccountActivationsController -->
<g id="node3" class="node"><title>UserSystem::AccountActivationsController</title>
<path fill="none" stroke="black" d="M601,-228.5C601,-228.5 831,-228.5 831,-228.5 837,-228.5 843,-234.5 843,-240.5 843,-240.5 843,-309.5 843,-309.5 843,-315.5 837,-321.5 831,-321.5 831,-321.5 601,-321.5 601,-321.5 595,-321.5 589,-315.5 589,-309.5 589,-309.5 589,-240.5 589,-240.5 589,-234.5 595,-228.5 601,-228.5"/>
<text text-anchor="middle" x="716" y="-306.3" font-family="Times,serif" font-size="14.00">UserSystem::AccountActivationsController</text>
<polyline fill="none" stroke="black" points="589,-298.5 843,-298.5 "/>
<text text-anchor="start" x="597" y="-283.3" font-family="Times,serif" font-size="14.00">edit</text>
<polyline fill="none" stroke="black" points="589,-275.5 843,-275.5 "/>
<polyline fill="none" stroke="black" points="589,-251.5 843,-251.5 "/>
<text text-anchor="start" x="597" y="-236.3" font-family="Times,serif" font-size="14.00">_layout</text>
</g>
<!-- UserSystem::PasswordResetsController -->
<g id="node4" class="node"><title>UserSystem::PasswordResetsController</title>
<path fill="none" stroke="black" d="M601,-361.5C601,-361.5 810,-361.5 810,-361.5 816,-361.5 822,-367.5 822,-373.5 822,-373.5 822,-547.5 822,-547.5 822,-553.5 816,-559.5 810,-559.5 810,-559.5 601,-559.5 601,-559.5 595,-559.5 589,-553.5 589,-547.5 589,-547.5 589,-373.5 589,-373.5 589,-367.5 595,-361.5 601,-361.5"/>
<text text-anchor="middle" x="705.5" y="-544.3" font-family="Times,serif" font-size="14.00">UserSystem::PasswordResetsController</text>
<polyline fill="none" stroke="black" points="589,-536.5 822,-536.5 "/>
<text text-anchor="start" x="597" y="-521.3" font-family="Times,serif" font-size="14.00">create</text>
<text text-anchor="start" x="597" y="-506.3" font-family="Times,serif" font-size="14.00">edit</text>
<text text-anchor="start" x="597" y="-491.3" font-family="Times,serif" font-size="14.00">new</text>
<text text-anchor="start" x="597" y="-476.3" font-family="Times,serif" font-size="14.00">update</text>
<polyline fill="none" stroke="black" points="589,-468.5 822,-468.5 "/>
<polyline fill="none" stroke="black" points="589,-444.5 822,-444.5 "/>
<text text-anchor="start" x="597" y="-429.3" font-family="Times,serif" font-size="14.00">_layout</text>
<text text-anchor="start" x="597" y="-414.3" font-family="Times,serif" font-size="14.00">check_expiration</text>
<text text-anchor="start" x="597" y="-399.3" font-family="Times,serif" font-size="14.00">get_user</text>
<text text-anchor="start" x="597" y="-384.3" font-family="Times,serif" font-size="14.00">user_params</text>
<text text-anchor="start" x="597" y="-369.3" font-family="Times,serif" font-size="14.00">valid_user</text>
</g>
<!-- UserSystem::SessionsController -->
<g id="node5" class="node"><title>UserSystem::SessionsController</title>
<path fill="none" stroke="black" d="M164,-798.5C164,-798.5 332,-798.5 332,-798.5 338,-798.5 344,-804.5 344,-810.5 344,-810.5 344,-954.5 344,-954.5 344,-960.5 338,-966.5 332,-966.5 332,-966.5 164,-966.5 164,-966.5 158,-966.5 152,-960.5 152,-954.5 152,-954.5 152,-810.5 152,-810.5 152,-804.5 158,-798.5 164,-798.5"/>
<text text-anchor="middle" x="248" y="-951.3" font-family="Times,serif" font-size="14.00">UserSystem::SessionsController</text>
<polyline fill="none" stroke="black" points="152,-943.5 344,-943.5 "/>
<text text-anchor="start" x="160" y="-928.3" font-family="Times,serif" font-size="14.00">admin_visible_toggle</text>
<text text-anchor="start" x="160" y="-913.3" font-family="Times,serif" font-size="14.00">create</text>
<text text-anchor="start" x="160" y="-898.3" font-family="Times,serif" font-size="14.00">destroy</text>
<text text-anchor="start" x="160" y="-883.3" font-family="Times,serif" font-size="14.00">get_user_id</text>
<text text-anchor="start" x="160" y="-868.3" font-family="Times,serif" font-size="14.00">new</text>
<polyline fill="none" stroke="black" points="152,-860.5 344,-860.5 "/>
<polyline fill="none" stroke="black" points="152,-836.5 344,-836.5 "/>
<text text-anchor="start" x="160" y="-821.3" font-family="Times,serif" font-size="14.00">_layout</text>
<text text-anchor="start" x="160" y="-806.3" font-family="Times,serif" font-size="14.00">set_admin_active</text>
</g>
<!-- UserSystem::UsersController -->
<g id="node6" class="node"><title>UserSystem::UsersController</title>
<path fill="none" stroke="black" d="M772,-589.5C772,-589.5 924,-589.5 924,-589.5 930,-589.5 936,-595.5 936,-601.5 936,-601.5 936,-775.5 936,-775.5 936,-781.5 930,-787.5 924,-787.5 924,-787.5 772,-787.5 772,-787.5 766,-787.5 760,-781.5 760,-775.5 760,-775.5 760,-601.5 760,-601.5 760,-595.5 766,-589.5 772,-589.5"/>
<text text-anchor="middle" x="848" y="-772.3" font-family="Times,serif" font-size="14.00">UserSystem::UsersController</text>
<polyline fill="none" stroke="black" points="760,-764.5 936,-764.5 "/>
<text text-anchor="start" x="768" y="-749.3" font-family="Times,serif" font-size="14.00">create</text>
<text text-anchor="start" x="768" y="-734.3" font-family="Times,serif" font-size="14.00">edit</text>
<text text-anchor="start" x="768" y="-719.3" font-family="Times,serif" font-size="14.00">new</text>
<text text-anchor="start" x="768" y="-704.3" font-family="Times,serif" font-size="14.00">show</text>
<text text-anchor="start" x="768" y="-689.3" font-family="Times,serif" font-size="14.00">update</text>
<polyline fill="none" stroke="black" points="760,-681.5 936,-681.5 "/>
<polyline fill="none" stroke="black" points="760,-657.5 936,-657.5 "/>
<text text-anchor="start" x="768" y="-642.3" font-family="Times,serif" font-size="14.00">_layout</text>
<text text-anchor="start" x="768" y="-627.3" font-family="Times,serif" font-size="14.00">require_same_user</text>
<text text-anchor="start" x="768" y="-612.3" font-family="Times,serif" font-size="14.00">set_user</text>
<text text-anchor="start" x="768" y="-597.3" font-family="Times,serif" font-size="14.00">user_params</text>
</g>
<!-- CartItemsController -->
<g id="node7" class="node"><title>CartItemsController</title>
<path fill="none" stroke="black" d="M430,-893.5C430,-893.5 532,-893.5 532,-893.5 538,-893.5 544,-899.5 544,-905.5 544,-905.5 544,-1004.5 544,-1004.5 544,-1010.5 538,-1016.5 532,-1016.5 532,-1016.5 430,-1016.5 430,-1016.5 424,-1016.5 418,-1010.5 418,-1004.5 418,-1004.5 418,-905.5 418,-905.5 418,-899.5 424,-893.5 430,-893.5"/>
<text text-anchor="middle" x="481" y="-1001.3" font-family="Times,serif" font-size="14.00">CartItemsController</text>
<polyline fill="none" stroke="black" points="418,-993.5 544,-993.5 "/>
<text text-anchor="start" x="426" y="-978.3" font-family="Times,serif" font-size="14.00">create</text>
<text text-anchor="start" x="426" y="-963.3" font-family="Times,serif" font-size="14.00">update</text>
<polyline fill="none" stroke="black" points="418,-955.5 544,-955.5 "/>
<polyline fill="none" stroke="black" points="418,-931.5 544,-931.5 "/>
<text text-anchor="start" x="426" y="-916.3" font-family="Times,serif" font-size="14.00">_layout</text>
<text text-anchor="start" x="426" y="-901.3" font-family="Times,serif" font-size="14.00">cart_item_params</text>
</g>
<!-- BrandsController -->
<g id="node8" class="node"><title>BrandsController</title>
<path fill="none" stroke="black" d="M392,-76.5C392,-76.5 478,-76.5 478,-76.5 484,-76.5 490,-82.5 490,-88.5 490,-88.5 490,-277.5 490,-277.5 490,-283.5 484,-289.5 478,-289.5 478,-289.5 392,-289.5 392,-289.5 386,-289.5 380,-283.5 380,-277.5 380,-277.5 380,-88.5 380,-88.5 380,-82.5 386,-76.5 392,-76.5"/>
<text text-anchor="middle" x="435" y="-274.3" font-family="Times,serif" font-size="14.00">BrandsController</text>
<polyline fill="none" stroke="black" points="380,-266.5 490,-266.5 "/>
<text text-anchor="start" x="388" y="-251.3" font-family="Times,serif" font-size="14.00">create</text>
<text text-anchor="start" x="388" y="-236.3" font-family="Times,serif" font-size="14.00">destroy</text>
<text text-anchor="start" x="388" y="-221.3" font-family="Times,serif" font-size="14.00">edit</text>
<text text-anchor="start" x="388" y="-206.3" font-family="Times,serif" font-size="14.00">index</text>
<text text-anchor="start" x="388" y="-191.3" font-family="Times,serif" font-size="14.00">new</text>
<text text-anchor="start" x="388" y="-176.3" font-family="Times,serif" font-size="14.00">show</text>
<text text-anchor="start" x="388" y="-161.3" font-family="Times,serif" font-size="14.00">update</text>
<polyline fill="none" stroke="black" points="380,-153.5 490,-153.5 "/>
<polyline fill="none" stroke="black" points="380,-129.5 490,-129.5 "/>
<text text-anchor="start" x="388" y="-114.3" font-family="Times,serif" font-size="14.00">_layout</text>
<text text-anchor="start" x="388" y="-99.3" font-family="Times,serif" font-size="14.00">brand_params</text>
<text text-anchor="start" x="388" y="-84.3" font-family="Times,serif" font-size="14.00">set_brand</text>
</g>
<!-- ApplicationController -->
<g id="node9" class="node"><title>ApplicationController</title>
<path fill="none" stroke="black" d="M12,-0.5C12,-0.5 124,-0.5 124,-0.5 130,-0.5 136,-6.5 136,-12.5 136,-12.5 136,-82.5 136,-82.5 136,-88.5 130,-94.5 124,-94.5 124,-94.5 12,-94.5 12,-94.5 6,-94.5 -5.68434e-14,-88.5 -5.68434e-14,-82.5 -5.68434e-14,-82.5 -5.68434e-14,-12.5 -5.68434e-14,-12.5 -5.68434e-14,-6.5 6,-0.5 12,-0.5"/>
<text text-anchor="middle" x="68" y="-79.3" font-family="Times,serif" font-size="14.00">ApplicationController</text>
<polyline fill="none" stroke="black" points="-5.68434e-14,-71.5 136,-71.5 "/>
<polyline fill="none" stroke="black" points="-5.68434e-14,-47.5 136,-47.5 "/>
<polyline fill="none" stroke="black" points="-5.68434e-14,-23.5 136,-23.5 "/>
<text text-anchor="start" x="8" y="-8.3" font-family="Times,serif" font-size="14.00">_layout</text>
</g>
<!-- ProductsController -->
<g id="node10" class="node"><title>ProductsController</title>
<path fill="none" stroke="black" d="M50,-646.5C50,-646.5 145,-646.5 145,-646.5 151,-646.5 157,-652.5 157,-658.5 157,-658.5 157,-742.5 157,-742.5 157,-748.5 151,-754.5 145,-754.5 145,-754.5 50,-754.5 50,-754.5 44,-754.5 38,-748.5 38,-742.5 38,-742.5 38,-658.5 38,-658.5 38,-652.5 44,-646.5 50,-646.5"/>
<text text-anchor="middle" x="97.5" y="-739.3" font-family="Times,serif" font-size="14.00">ProductsController</text>
<polyline fill="none" stroke="black" points="38,-731.5 157,-731.5 "/>
<text text-anchor="start" x="46" y="-716.3" font-family="Times,serif" font-size="14.00">index</text>
<text text-anchor="start" x="46" y="-701.3" font-family="Times,serif" font-size="14.00">show</text>
<polyline fill="none" stroke="black" points="38,-693.5 157,-693.5 "/>
<polyline fill="none" stroke="black" points="38,-669.5 157,-669.5 "/>
<text text-anchor="start" x="46" y="-654.3" font-family="Times,serif" font-size="14.00">_layout</text>
</g>
<!-- ImagesController -->
<g id="node11" class="node"><title>ImagesController</title>
<path fill="none" stroke="black" d="M12,-798.5C12,-798.5 100,-798.5 100,-798.5 106,-798.5 112,-804.5 112,-810.5 112,-810.5 112,-879.5 112,-879.5 112,-885.5 106,-891.5 100,-891.5 100,-891.5 12,-891.5 12,-891.5 6,-891.5 -5.68434e-14,-885.5 -5.68434e-14,-879.5 -5.68434e-14,-879.5 -5.68434e-14,-810.5 -5.68434e-14,-810.5 -5.68434e-14,-804.5 6,-798.5 12,-798.5"/>
<text text-anchor="middle" x="56" y="-876.3" font-family="Times,serif" font-size="14.00">ImagesController</text>
<polyline fill="none" stroke="black" points="-5.68434e-14,-868.5 112,-868.5 "/>
<text text-anchor="start" x="8" y="-853.3" font-family="Times,serif" font-size="14.00">upload</text>
<polyline fill="none" stroke="black" points="-5.68434e-14,-845.5 112,-845.5 "/>
<polyline fill="none" stroke="black" points="-5.68434e-14,-821.5 112,-821.5 "/>
<text text-anchor="start" x="8" y="-806.3" font-family="Times,serif" font-size="14.00">_layout</text>
</g>
<!-- AdminController -->
<g id="node12" class="node"><title>AdminController</title>
<path fill="none" stroke="black" d="M50,-475.5C50,-475.5 136,-475.5 136,-475.5 142,-475.5 148,-481.5 148,-487.5 148,-487.5 148,-586.5 148,-586.5 148,-592.5 142,-598.5 136,-598.5 136,-598.5 50,-598.5 50,-598.5 44,-598.5 38,-592.5 38,-586.5 38,-586.5 38,-487.5 38,-487.5 38,-481.5 44,-475.5 50,-475.5"/>
<text text-anchor="middle" x="93" y="-583.3" font-family="Times,serif" font-size="14.00">AdminController</text>
<polyline fill="none" stroke="black" points="38,-575.5 148,-575.5 "/>
<text text-anchor="start" x="46" y="-560.3" font-family="Times,serif" font-size="14.00">define_site</text>
<text text-anchor="start" x="46" y="-545.3" font-family="Times,serif" font-size="14.00">edit</text>
<text text-anchor="start" x="46" y="-530.3" font-family="Times,serif" font-size="14.00">new</text>
<polyline fill="none" stroke="black" points="38,-522.5 148,-522.5 "/>
<polyline fill="none" stroke="black" points="38,-498.5 148,-498.5 "/>
<text text-anchor="start" x="46" y="-483.3" font-family="Times,serif" font-size="14.00">_layout</text>
</g>
<!-- ProductImportsController -->
<g id="node13" class="node"><title>ProductImportsController</title>
<path fill="none" stroke="black" d="M867,-361.5C867,-361.5 1000,-361.5 1000,-361.5 1006,-361.5 1012,-367.5 1012,-373.5 1012,-373.5 1012,-517.5 1012,-517.5 1012,-523.5 1006,-529.5 1000,-529.5 1000,-529.5 867,-529.5 867,-529.5 861,-529.5 855,-523.5 855,-517.5 855,-517.5 855,-373.5 855,-373.5 855,-367.5 861,-361.5 867,-361.5"/>
<text text-anchor="middle" x="933.5" y="-514.3" font-family="Times,serif" font-size="14.00">ProductImportsController</text>
<polyline fill="none" stroke="black" points="855,-506.5 1012,-506.5 "/>
<text text-anchor="start" x="863" y="-491.3" font-family="Times,serif" font-size="14.00">confirm_import</text>
<text text-anchor="start" x="863" y="-476.3" font-family="Times,serif" font-size="14.00">create</text>
<text text-anchor="start" x="863" y="-461.3" font-family="Times,serif" font-size="14.00">new</text>
<text text-anchor="start" x="863" y="-446.3" font-family="Times,serif" font-size="14.00">process_import</text>
<polyline fill="none" stroke="black" points="855,-438.5 1012,-438.5 "/>
<polyline fill="none" stroke="black" points="855,-414.5 1012,-414.5 "/>
<text text-anchor="start" x="863" y="-399.3" font-family="Times,serif" font-size="14.00">_layout</text>
<text text-anchor="start" x="863" y="-384.3" font-family="Times,serif" font-size="14.00">get_file</text>
<text text-anchor="start" x="863" y="-369.3" font-family="Times,serif" font-size="14.00">product_import_params</text>
</g>
<!-- CategoriesController -->
<g id="node14" class="node"><title>CategoriesController</title>
<path fill="none" stroke="black" d="M12,-323.5C12,-323.5 118,-323.5 118,-323.5 124,-323.5 130,-329.5 130,-335.5 130,-335.5 130,-419.5 130,-419.5 130,-425.5 124,-431.5 118,-431.5 118,-431.5 12,-431.5 12,-431.5 6,-431.5 -5.68434e-14,-425.5 -5.68434e-14,-419.5 -5.68434e-14,-419.5 -5.68434e-14,-335.5 -5.68434e-14,-335.5 -5.68434e-14,-329.5 6,-323.5 12,-323.5"/>
<text text-anchor="middle" x="65" y="-416.3" font-family="Times,serif" font-size="14.00">CategoriesController</text>
<polyline fill="none" stroke="black" points="-5.68434e-14,-408.5 130,-408.5 "/>
<text text-anchor="start" x="8" y="-393.3" font-family="Times,serif" font-size="14.00">index</text>
<text text-anchor="start" x="8" y="-378.3" font-family="Times,serif" font-size="14.00">show</text>
<polyline fill="none" stroke="black" points="-5.68434e-14,-370.5 130,-370.5 "/>
<polyline fill="none" stroke="black" points="-5.68434e-14,-346.5 130,-346.5 "/>
<text text-anchor="start" x="8" y="-331.3" font-family="Times,serif" font-size="14.00">_layout</text>
</g>
<!-- OrdersController -->
<g id="node15" class="node"><title>OrdersController</title>
<path fill="none" stroke="black" d="M601,-589.5C601,-589.5 706,-589.5 706,-589.5 712,-589.5 718,-595.5 718,-601.5 718,-601.5 718,-895.5 718,-895.5 718,-901.5 712,-907.5 706,-907.5 706,-907.5 601,-907.5 601,-907.5 595,-907.5 589,-901.5 589,-895.5 589,-895.5 589,-601.5 589,-601.5 589,-595.5 595,-589.5 601,-589.5"/>
<text text-anchor="middle" x="653.5" y="-892.3" font-family="Times,serif" font-size="14.00">OrdersController</text>
<polyline fill="none" stroke="black" points="589,-884.5 718,-884.5 "/>
<text text-anchor="start" x="597" y="-869.3" font-family="Times,serif" font-size="14.00">create</text>
<text text-anchor="start" x="597" y="-854.3" font-family="Times,serif" font-size="14.00">destroy</text>
<text text-anchor="start" x="597" y="-839.3" font-family="Times,serif" font-size="14.00">edit</text>
<text text-anchor="start" x="597" y="-824.3" font-family="Times,serif" font-size="14.00">express_checkout</text>
<text text-anchor="start" x="597" y="-809.3" font-family="Times,serif" font-size="14.00">hook</text>
<text text-anchor="start" x="597" y="-794.3" font-family="Times,serif" font-size="14.00">index</text>
<text text-anchor="start" x="597" y="-779.3" font-family="Times,serif" font-size="14.00">new</text>
<text text-anchor="start" x="597" y="-764.3" font-family="Times,serif" font-size="14.00">purchase</text>
<text text-anchor="start" x="597" y="-749.3" font-family="Times,serif" font-size="14.00">shipping_method</text>
<text text-anchor="start" x="597" y="-734.3" font-family="Times,serif" font-size="14.00">show</text>
<text text-anchor="start" x="597" y="-719.3" font-family="Times,serif" font-size="14.00">summary</text>
<text text-anchor="start" x="597" y="-704.3" font-family="Times,serif" font-size="14.00">update</text>
<polyline fill="none" stroke="black" points="589,-696.5 718,-696.5 "/>
<polyline fill="none" stroke="black" points="589,-672.5 718,-672.5 "/>
<text text-anchor="start" x="597" y="-657.3" font-family="Times,serif" font-size="14.00">_layout</text>
<text text-anchor="start" x="597" y="-642.3" font-family="Times,serif" font-size="14.00">checkout_navigation</text>
<text text-anchor="start" x="597" y="-627.3" font-family="Times,serif" font-size="14.00">order_params</text>
<text text-anchor="start" x="597" y="-612.3" font-family="Times,serif" font-size="14.00">set_order</text>
<text text-anchor="start" x="597" y="-597.3" font-family="Times,serif" font-size="14.00">set_up_user</text>
</g>
<!-- PagesController -->
<g id="node16" class="node"><title>PagesController</title>
<path fill="none" stroke="black" d="M544,-76.5C544,-76.5 657,-76.5 657,-76.5 663,-76.5 669,-82.5 669,-88.5 669,-88.5 669,-187.5 669,-187.5 669,-193.5 663,-199.5 657,-199.5 657,-199.5 544,-199.5 544,-199.5 538,-199.5 532,-193.5 532,-187.5 532,-187.5 532,-88.5 532,-88.5 532,-82.5 538,-76.5 544,-76.5"/>
<text text-anchor="middle" x="600.5" y="-184.3" font-family="Times,serif" font-size="14.00">PagesController</text>
<polyline fill="none" stroke="black" points="532,-176.5 669,-176.5 "/>
<text text-anchor="start" x="540" y="-161.3" font-family="Times,serif" font-size="14.00">privacy_policy</text>
<text text-anchor="start" x="540" y="-146.3" font-family="Times,serif" font-size="14.00">show</text>
<text text-anchor="start" x="540" y="-131.3" font-family="Times,serif" font-size="14.00">terms_and_conditions</text>
<polyline fill="none" stroke="black" points="532,-123.5 669,-123.5 "/>
<polyline fill="none" stroke="black" points="532,-99.5 669,-99.5 "/>
<text text-anchor="start" x="540" y="-84.3" font-family="Times,serif" font-size="14.00">_layout</text>
</g>
<!-- Admin::SitesController -->
<g id="node17" class="node"><title>Admin::SitesController</title>
<path fill="none" stroke="black" d="M829,-817.5C829,-817.5 949,-817.5 949,-817.5 955,-817.5 961,-823.5 961,-829.5 961,-829.5 961,-1003.5 961,-1003.5 961,-1009.5 955,-1015.5 949,-1015.5 949,-1015.5 829,-1015.5 829,-1015.5 823,-1015.5 817,-1009.5 817,-1003.5 817,-1003.5 817,-829.5 817,-829.5 817,-823.5 823,-817.5 829,-817.5"/>
<text text-anchor="middle" x="889" y="-1000.3" font-family="Times,serif" font-size="14.00">Admin::SitesController</text>
<polyline fill="none" stroke="black" points="817,-992.5 961,-992.5 "/>
<text text-anchor="start" x="825" y="-977.3" font-family="Times,serif" font-size="14.00">create</text>
<text text-anchor="start" x="825" y="-962.3" font-family="Times,serif" font-size="14.00">destroy</text>
<text text-anchor="start" x="825" y="-947.3" font-family="Times,serif" font-size="14.00">index</text>
<text text-anchor="start" x="825" y="-932.3" font-family="Times,serif" font-size="14.00">toggle_status</text>
<text text-anchor="start" x="825" y="-917.3" font-family="Times,serif" font-size="14.00">update</text>
<polyline fill="none" stroke="black" points="817,-909.5 961,-909.5 "/>
<polyline fill="none" stroke="black" points="817,-885.5 961,-885.5 "/>
<text text-anchor="start" x="825" y="-870.3" font-family="Times,serif" font-size="14.00">_layout</text>
<text text-anchor="start" x="825" y="-855.3" font-family="Times,serif" font-size="14.00">set_new</text>
<text text-anchor="start" x="825" y="-840.3" font-family="Times,serif" font-size="14.00">set_site</text>
<text text-anchor="start" x="825" y="-825.3" font-family="Times,serif" font-size="14.00">site_params</text>
</g>
<!-- Admin::ProductsController -->
<g id="node18" class="node"><title>Admin::ProductsController</title>
<path fill="none" stroke="black" d="M392,-323.5C392,-323.5 533,-323.5 533,-323.5 539,-323.5 545,-329.5 545,-335.5 545,-335.5 545,-599.5 545,-599.5 545,-605.5 539,-611.5 533,-611.5 533,-611.5 392,-611.5 392,-611.5 386,-611.5 380,-605.5 380,-599.5 380,-599.5 380,-335.5 380,-335.5 380,-329.5 386,-323.5 392,-323.5"/>
<text text-anchor="middle" x="462.5" y="-596.3" font-family="Times,serif" font-size="14.00">Admin::ProductsController</text>
<polyline fill="none" stroke="black" points="380,-588.5 545,-588.5 "/>
<text text-anchor="start" x="388" y="-573.3" font-family="Times,serif" font-size="14.00">create</text>
<text text-anchor="start" x="388" y="-558.3" font-family="Times,serif" font-size="14.00">destroy</text>
<text text-anchor="start" x="388" y="-543.3" font-family="Times,serif" font-size="14.00">export</text>
<text text-anchor="start" x="388" y="-528.3" font-family="Times,serif" font-size="14.00">index</text>
<text text-anchor="start" x="388" y="-513.3" font-family="Times,serif" font-size="14.00">remove_image</text>
<text text-anchor="start" x="388" y="-498.3" font-family="Times,serif" font-size="14.00">show</text>
<text text-anchor="start" x="388" y="-483.3" font-family="Times,serif" font-size="14.00">update</text>
<polyline fill="none" stroke="black" points="380,-475.5 545,-475.5 "/>
<polyline fill="none" stroke="black" points="380,-451.5 545,-451.5 "/>
<text text-anchor="start" x="388" y="-436.3" font-family="Times,serif" font-size="14.00">_layout</text>
<text text-anchor="start" x="388" y="-421.3" font-family="Times,serif" font-size="14.00">categorise_products</text>
<text text-anchor="start" x="388" y="-406.3" font-family="Times,serif" font-size="14.00">process_features</text>
<text text-anchor="start" x="388" y="-391.3" font-family="Times,serif" font-size="14.00">process_images</text>
<text text-anchor="start" x="388" y="-376.3" font-family="Times,serif" font-size="14.00">product_params</text>
<text text-anchor="start" x="388" y="-361.3" font-family="Times,serif" font-size="14.00">set_features</text>
<text text-anchor="start" x="388" y="-346.3" font-family="Times,serif" font-size="14.00">set_new</text>
<text text-anchor="start" x="388" y="-331.3" font-family="Times,serif" font-size="14.00">set_product</text>
</g>
<!-- Admin::MenuItemsController -->
<g id="node19" class="node"><title>Admin::MenuItemsController</title>
<path fill="none" stroke="black" d="M392,-646.5C392,-646.5 549,-646.5 549,-646.5 555,-646.5 561,-652.5 561,-658.5 561,-658.5 561,-847.5 561,-847.5 561,-853.5 555,-859.5 549,-859.5 549,-859.5 392,-859.5 392,-859.5 386,-859.5 380,-853.5 380,-847.5 380,-847.5 380,-658.5 380,-658.5 380,-652.5 386,-646.5 392,-646.5"/>
<text text-anchor="middle" x="470.5" y="-844.3" font-family="Times,serif" font-size="14.00">Admin::MenuItemsController</text>
<polyline fill="none" stroke="black" points="380,-836.5 561,-836.5 "/>
<text text-anchor="start" x="388" y="-821.3" font-family="Times,serif" font-size="14.00">create</text>
<text text-anchor="start" x="388" y="-806.3" font-family="Times,serif" font-size="14.00">destroy</text>
<text text-anchor="start" x="388" y="-791.3" font-family="Times,serif" font-size="14.00">edit</text>
<text text-anchor="start" x="388" y="-776.3" font-family="Times,serif" font-size="14.00">index</text>
<text text-anchor="start" x="388" y="-761.3" font-family="Times,serif" font-size="14.00">new</text>
<text text-anchor="start" x="388" y="-746.3" font-family="Times,serif" font-size="14.00">update</text>
<polyline fill="none" stroke="black" points="380,-738.5 561,-738.5 "/>
<polyline fill="none" stroke="black" points="380,-714.5 561,-714.5 "/>
<text text-anchor="start" x="388" y="-699.3" font-family="Times,serif" font-size="14.00">_layout</text>
<text text-anchor="start" x="388" y="-684.3" font-family="Times,serif" font-size="14.00">menu_item_params</text>
<text text-anchor="start" x="388" y="-669.3" font-family="Times,serif" font-size="14.00">set_menu_item</text>
<text text-anchor="start" x="388" y="-654.3" font-family="Times,serif" font-size="14.00">set_site</text>
</g>
<!-- Admin::CategoriesController -->
<g id="node20" class="node"><title>Admin::CategoriesController</title>
<path fill="none" stroke="black" d="M183,-247.5C183,-247.5 335,-247.5 335,-247.5 341,-247.5 347,-253.5 347,-259.5 347,-259.5 347,-433.5 347,-433.5 347,-439.5 341,-445.5 335,-445.5 335,-445.5 183,-445.5 183,-445.5 177,-445.5 171,-439.5 171,-433.5 171,-433.5 171,-259.5 171,-259.5 171,-253.5 177,-247.5 183,-247.5"/>
<text text-anchor="middle" x="259" y="-430.3" font-family="Times,serif" font-size="14.00">Admin::CategoriesController</text>
<polyline fill="none" stroke="black" points="171,-422.5 347,-422.5 "/>
<text text-anchor="start" x="179" y="-407.3" font-family="Times,serif" font-size="14.00">create</text>
<text text-anchor="start" x="179" y="-392.3" font-family="Times,serif" font-size="14.00">destroy</text>
<text text-anchor="start" x="179" y="-377.3" font-family="Times,serif" font-size="14.00">index</text>
<text text-anchor="start" x="179" y="-362.3" font-family="Times,serif" font-size="14.00">update</text>
<polyline fill="none" stroke="black" points="171,-354.5 347,-354.5 "/>
<polyline fill="none" stroke="black" points="171,-330.5 347,-330.5 "/>
<text text-anchor="start" x="179" y="-315.3" font-family="Times,serif" font-size="14.00">_layout</text>
<text text-anchor="start" x="179" y="-300.3" font-family="Times,serif" font-size="14.00">categorise_sites</text>
<text text-anchor="start" x="179" y="-285.3" font-family="Times,serif" font-size="14.00">category_params</text>
<text text-anchor="start" x="179" y="-270.3" font-family="Times,serif" font-size="14.00">set_category</text>
<text text-anchor="start" x="179" y="-255.3" font-family="Times,serif" font-size="14.00">set_new</text>
</g>
<!-- Admin::OrdersController -->
<g id="node21" class="node"><title>Admin::OrdersController</title>
<path fill="none" stroke="black" d="M639,-950.5C639,-950.5 770,-950.5 770,-950.5 776,-950.5 782,-956.5 782,-962.5 782,-962.5 782,-1046.5 782,-1046.5 782,-1052.5 776,-1058.5 770,-1058.5 770,-1058.5 639,-1058.5 639,-1058.5 633,-1058.5 627,-1052.5 627,-1046.5 627,-1046.5 627,-962.5 627,-962.5 627,-956.5 633,-950.5 639,-950.5"/>
<text text-anchor="middle" x="704.5" y="-1043.3" font-family="Times,serif" font-size="14.00">Admin::OrdersController</text>
<polyline fill="none" stroke="black" points="627,-1035.5 782,-1035.5 "/>
<text text-anchor="start" x="635" y="-1020.3" font-family="Times,serif" font-size="14.00">index</text>
<text text-anchor="start" x="635" y="-1005.3" font-family="Times,serif" font-size="14.00">show</text>
<polyline fill="none" stroke="black" points="627,-997.5 782,-997.5 "/>
<polyline fill="none" stroke="black" points="627,-973.5 782,-973.5 "/>
<text text-anchor="start" x="635" y="-958.3" font-family="Times,serif" font-size="14.00">_layout</text>
</g>
<!-- Admin::PagesController -->
<g id="node22" class="node"><title>Admin::PagesController</title>
<path fill="none" stroke="black" d="M202,-475.5C202,-475.5 327,-475.5 327,-475.5 333,-475.5 339,-481.5 339,-487.5 339,-487.5 339,-721.5 339,-721.5 339,-727.5 333,-733.5 327,-733.5 327,-733.5 202,-733.5 202,-733.5 196,-733.5 190,-727.5 190,-721.5 190,-721.5 190,-487.5 190,-487.5 190,-481.5 196,-475.5 202,-475.5"/>
<text text-anchor="middle" x="264.5" y="-718.3" font-family="Times,serif" font-size="14.00">Admin::PagesController</text>
<polyline fill="none" stroke="black" points="190,-710.5 339,-710.5 "/>
<text text-anchor="start" x="198" y="-695.3" font-family="Times,serif" font-size="14.00">create</text>
<text text-anchor="start" x="198" y="-680.3" font-family="Times,serif" font-size="14.00">destroy</text>
<text text-anchor="start" x="198" y="-665.3" font-family="Times,serif" font-size="14.00">edit</text>
<text text-anchor="start" x="198" y="-650.3" font-family="Times,serif" font-size="14.00">index</text>
<text text-anchor="start" x="198" y="-635.3" font-family="Times,serif" font-size="14.00">new</text>
<text text-anchor="start" x="198" y="-620.3" font-family="Times,serif" font-size="14.00">show</text>
<text text-anchor="start" x="198" y="-605.3" font-family="Times,serif" font-size="14.00">update</text>
<polyline fill="none" stroke="black" points="190,-597.5 339,-597.5 "/>
<polyline fill="none" stroke="black" points="190,-573.5 339,-573.5 "/>
<text text-anchor="start" x="198" y="-558.3" font-family="Times,serif" font-size="14.00">_layout</text>
<text text-anchor="start" x="198" y="-543.3" font-family="Times,serif" font-size="14.00">page_params</text>
<text text-anchor="start" x="198" y="-528.3" font-family="Times,serif" font-size="14.00">process_menu_item</text>
<text text-anchor="start" x="198" y="-513.3" font-family="Times,serif" font-size="14.00">process_menu_items</text>
<text text-anchor="start" x="198" y="-498.3" font-family="Times,serif" font-size="14.00">set_page</text>
<text text-anchor="start" x="198" y="-483.3" font-family="Times,serif" font-size="14.00">set_site</text>
</g>
<!-- Admin::UsersController -->
<g id="node23" class="node"><title>Admin::UsersController</title>
<path fill="none" stroke="black" d="M886,-76.5C886,-76.5 1011,-76.5 1011,-76.5 1017,-76.5 1023,-82.5 1023,-88.5 1023,-88.5 1023,-247.5 1023,-247.5 1023,-253.5 1017,-259.5 1011,-259.5 1011,-259.5 886,-259.5 886,-259.5 880,-259.5 874,-253.5 874,-247.5 874,-247.5 874,-88.5 874,-88.5 874,-82.5 880,-76.5 886,-76.5"/>
<text text-anchor="middle" x="948.5" y="-244.3" font-family="Times,serif" font-size="14.00">Admin::UsersController</text>
<polyline fill="none" stroke="black" points="874,-236.5 1023,-236.5 "/>
<text text-anchor="start" x="882" y="-221.3" font-family="Times,serif" font-size="14.00">create</text>
<text text-anchor="start" x="882" y="-206.3" font-family="Times,serif" font-size="14.00">destroy</text>
<text text-anchor="start" x="882" y="-191.3" font-family="Times,serif" font-size="14.00">index</text>
<text text-anchor="start" x="882" y="-176.3" font-family="Times,serif" font-size="14.00">update</text>
<polyline fill="none" stroke="black" points="874,-168.5 1023,-168.5 "/>
<polyline fill="none" stroke="black" points="874,-144.5 1023,-144.5 "/>
<text text-anchor="start" x="882" y="-129.3" font-family="Times,serif" font-size="14.00">_layout</text>
<text text-anchor="start" x="882" y="-114.3" font-family="Times,serif" font-size="14.00">set_new</text>
<text text-anchor="start" x="882" y="-99.3" font-family="Times,serif" font-size="14.00">set_user</text>
<text text-anchor="start" x="882" y="-84.3" font-family="Times,serif" font-size="14.00">user_params</text>
</g>
<!-- StaticPagesController -->
<g id="node24" class="node"><title>StaticPagesController</title>
<path fill="none" stroke="black" d="M183,-0.5C183,-0.5 293,-0.5 293,-0.5 299,-0.5 305,-6.5 305,-12.5 305,-12.5 305,-81.5 305,-81.5 305,-87.5 299,-93.5 293,-93.5 293,-93.5 183,-93.5 183,-93.5 177,-93.5 171,-87.5 171,-81.5 171,-81.5 171,-12.5 171,-12.5 171,-6.5 177,-0.5 183,-0.5"/>
<text text-anchor="middle" x="238" y="-78.3" font-family="Times,serif" font-size="14.00">StaticPagesController</text>
<polyline fill="none" stroke="black" points="171,-70.5 305,-70.5 "/>
<text text-anchor="start" x="179" y="-55.3" font-family="Times,serif" font-size="14.00">home</text>
<polyline fill="none" stroke="black" points="171,-47.5 305,-47.5 "/>
<polyline fill="none" stroke="black" points="171,-23.5 305,-23.5 "/>
<text text-anchor="start" x="179" y="-8.3" font-family="Times,serif" font-size="14.00">_layout</text>
</g>
<!-- CartsController -->
<g id="node25" class="node"><title>CartsController</title>
<path fill="none" stroke="black" d="M31,-931.5C31,-931.5 108,-931.5 108,-931.5 114,-931.5 120,-937.5 120,-943.5 120,-943.5 120,-1042.5 120,-1042.5 120,-1048.5 114,-1054.5 108,-1054.5 108,-1054.5 31,-1054.5 31,-1054.5 25,-1054.5 19,-1048.5 19,-1042.5 19,-1042.5 19,-943.5 19,-943.5 19,-937.5 25,-931.5 31,-931.5"/>
<text text-anchor="middle" x="69.5" y="-1039.3" font-family="Times,serif" font-size="14.00">CartsController</text>
<polyline fill="none" stroke="black" points="19,-1031.5 120,-1031.5 "/>
<text text-anchor="start" x="27" y="-1016.3" font-family="Times,serif" font-size="14.00">destroy</text>
<text text-anchor="start" x="27" y="-1001.3" font-family="Times,serif" font-size="14.00">index</text>
<polyline fill="none" stroke="black" points="19,-993.5 120,-993.5 "/>
<polyline fill="none" stroke="black" points="19,-969.5 120,-969.5 "/>
<text text-anchor="start" x="27" y="-954.3" font-family="Times,serif" font-size="14.00">_layout</text>
<text text-anchor="start" x="27" y="-939.3" font-family="Times,serif" font-size="14.00">cart_params</text>
</g>
</g>
</svg>
