<?xml version="1.0" encoding="UTF-8" standalone="no"?>
<!DOCTYPE svg PUBLIC "-//W3C//DTD SVG 1.1//EN"
 "http://www.w3.org/Graphics/SVG/1.1/DTD/svg11.dtd">
<!-- Generated by graphviz version 2.36.0 (20140111.2315)
 -->
<!-- Title: models_diagram Pages: 1 -->
<svg width="1158pt" height="1192pt"
 viewBox="0.00 0.00 1158.00 1192.00" xmlns="http://www.w3.org/2000/svg" xmlns:xlink="http://www.w3.org/1999/xlink">
<g id="graph0" class="graph" transform="scale(1 1) rotate(0) translate(4 1188)">
<title>models_diagram</title>
<polygon fill="none" stroke="none" points="-4,4 -4,-1188 1154,-1188 1154,4 -4,4"/>
<!-- _diagram_info -->
<g id="node1" class="node"><title>_diagram_info</title>
<text text-anchor="start" x="18" y="-1057.6" font-family="Times,serif" font-size="13.00">Models diagram</text>
<text text-anchor="start" x="18" y="-1043.6" font-family="Times,serif" font-size="13.00">Date: Apr 01 2016 &#45; 13:24</text>
<text text-anchor="start" x="18" y="-1029.6" font-family="Times,serif" font-size="13.00">Migration version: 20151217170128</text>
<text text-anchor="start" x="18" y="-1015.6" font-family="Times,serif" font-size="13.00">Generated by RailRoady 1.4.2</text>
<text text-anchor="start" x="18" y="-1001.6" font-family="Times,serif" font-size="13.00">http://railroady.prestonlee.com</text>
</g>
<!-- SitePage -->
<g id="node2" class="node"><title>SitePage</title>
<path fill="none" stroke="black" d="M254.5,-980C254.5,-980 361.5,-980 361.5,-980 367.5,-980 373.5,-986 373.5,-992 373.5,-992 373.5,-1074 373.5,-1074 373.5,-1080 367.5,-1086 361.5,-1086 361.5,-1086 254.5,-1086 254.5,-1086 248.5,-1086 242.5,-1080 242.5,-1074 242.5,-1074 242.5,-992 242.5,-992 242.5,-986 248.5,-980 254.5,-980"/>
<text text-anchor="middle" x="308" y="-1070.8" font-family="Times,serif" font-size="14.00">SitePage</text>
<polyline fill="none" stroke="black" points="242.5,-1063 373.5,-1063 "/>
<text text-anchor="start" x="250.5" y="-1047.8" font-family="Times,serif" font-size="14.00">id :INTEGER</text>
<text text-anchor="start" x="250.5" y="-1032.8" font-family="Times,serif" font-size="14.00">site_id :integer</text>
<text text-anchor="start" x="250.5" y="-1017.8" font-family="Times,serif" font-size="14.00">page_id :integer</text>
<text text-anchor="start" x="250.5" y="-1002.8" font-family="Times,serif" font-size="14.00">created_at :datetime</text>
<text text-anchor="start" x="250.5" y="-987.8" font-family="Times,serif" font-size="14.00">updated_at :datetime</text>
</g>
<!-- Site -->
<g id="node3" class="node"><title>Site</title>
<path fill="none" stroke="black" d="M404,-882.5C404,-882.5 540,-882.5 540,-882.5 546,-882.5 552,-888.5 552,-894.5 552,-894.5 552,-1171.5 552,-1171.5 552,-1177.5 546,-1183.5 540,-1183.5 540,-1183.5 404,-1183.5 404,-1183.5 398,-1183.5 392,-1177.5 392,-1171.5 392,-1171.5 392,-894.5 392,-894.5 392,-888.5 398,-882.5 404,-882.5"/>
<text text-anchor="middle" x="472" y="-1168.3" font-family="Times,serif" font-size="14.00">Site</text>
<polyline fill="none" stroke="black" points="392,-1160.5 552,-1160.5 "/>
<text text-anchor="start" x="400" y="-1145.3" font-family="Times,serif" font-size="14.00">id :INTEGER</text>
<text text-anchor="start" x="400" y="-1130.3" font-family="Times,serif" font-size="14.00">name :varchar</text>
<text text-anchor="start" x="400" y="-1115.3" font-family="Times,serif" font-size="14.00">email :varchar</text>
<text text-anchor="start" x="400" y="-1100.3" font-family="Times,serif" font-size="14.00">url :varchar</text>
<text text-anchor="start" x="400" y="-1085.3" font-family="Times,serif" font-size="14.00">machine_name :varchar</text>
<text text-anchor="start" x="400" y="-1070.3" font-family="Times,serif" font-size="14.00">color :varchar</text>
<text text-anchor="start" x="400" y="-1055.3" font-family="Times,serif" font-size="14.00">logo :varchar</text>
<text text-anchor="start" x="400" y="-1040.3" font-family="Times,serif" font-size="14.00">home_body :text</text>
<text text-anchor="start" x="400" y="-1025.3" font-family="Times,serif" font-size="14.00">banner_image :varchar</text>
<text text-anchor="start" x="400" y="-1010.3" font-family="Times,serif" font-size="14.00">banner_text :text</text>
<text text-anchor="start" x="400" y="-995.3" font-family="Times,serif" font-size="14.00">include_products :boolean</text>
<text text-anchor="start" x="400" y="-980.3" font-family="Times,serif" font-size="14.00">default_site :boolean</text>
<text text-anchor="start" x="400" y="-965.3" font-family="Times,serif" font-size="14.00">active :boolean</text>
<text text-anchor="start" x="400" y="-950.3" font-family="Times,serif" font-size="14.00">second_sidebar :text</text>
<text text-anchor="start" x="400" y="-935.3" font-family="Times,serif" font-size="14.00">homepage_id :integer</text>
<text text-anchor="start" x="400" y="-920.3" font-family="Times,serif" font-size="14.00">include_cart :integer</text>
<text text-anchor="start" x="400" y="-905.3" font-family="Times,serif" font-size="14.00">created_at :datetime</text>
<text text-anchor="start" x="400" y="-890.3" font-family="Times,serif" font-size="14.00">updated_at :datetime</text>
</g>
<!-- Product -->
<g id="node4" class="node"><title>Product</title>
<path fill="none" stroke="black" d="M75.5,-367.5C75.5,-367.5 182.5,-367.5 182.5,-367.5 188.5,-367.5 194.5,-373.5 194.5,-379.5 194.5,-379.5 194.5,-536.5 194.5,-536.5 194.5,-542.5 188.5,-548.5 182.5,-548.5 182.5,-548.5 75.5,-548.5 75.5,-548.5 69.5,-548.5 63.5,-542.5 63.5,-536.5 63.5,-536.5 63.5,-379.5 63.5,-379.5 63.5,-373.5 69.5,-367.5 75.5,-367.5"/>
<text text-anchor="middle" x="129" y="-533.3" font-family="Times,serif" font-size="14.00">Product</text>
<polyline fill="none" stroke="black" points="63.5,-525.5 194.5,-525.5 "/>
<text text-anchor="start" x="71.5" y="-510.3" font-family="Times,serif" font-size="14.00">id :INTEGER</text>
<text text-anchor="start" x="71.5" y="-495.3" font-family="Times,serif" font-size="14.00">name :varchar</text>
<text text-anchor="start" x="71.5" y="-480.3" font-family="Times,serif" font-size="14.00">sku :varchar</text>
<text text-anchor="start" x="71.5" y="-465.3" font-family="Times,serif" font-size="14.00">body :text</text>
<text text-anchor="start" x="71.5" y="-450.3" font-family="Times,serif" font-size="14.00">features :text</text>
<text text-anchor="start" x="71.5" y="-435.3" font-family="Times,serif" font-size="14.00">brand_id :integer</text>
<text text-anchor="start" x="71.5" y="-420.3" font-family="Times,serif" font-size="14.00">mpn :varchar</text>
<text text-anchor="start" x="71.5" y="-405.3" font-family="Times,serif" font-size="14.00">price :decimal(8,2)</text>
<text text-anchor="start" x="71.5" y="-390.3" font-family="Times,serif" font-size="14.00">created_at :datetime</text>
<text text-anchor="start" x="71.5" y="-375.3" font-family="Times,serif" font-size="14.00">updated_at :datetime</text>
</g>
<!-- Site&#45;&gt;Product -->
<g id="edge3" class="edge"><title>Site&#45;&gt;Product</title>
<path fill="none" stroke="#92dbf6" d="M383.883,-883.334C383.259,-882.883 382.631,-882.439 382,-882 306.263,-829.373 241.31,-911.064 178,-844 158.705,-823.56 143.745,-666.19 135.667,-559.082"/>
<polygon fill="#92dbf6" stroke="#92dbf6" points="383.905,-883.351 389.019,-893.052 387.847,-886.428 391.788,-889.505 391.788,-889.505 391.788,-889.505 387.847,-886.428 394.557,-885.958 383.905,-883.351 383.905,-883.351"/>
<polygon fill="#92dbf6" stroke="#92dbf6" points="135.649,-558.853 139.394,-548.546 135.278,-553.867 134.906,-548.88 134.906,-548.88 134.906,-548.88 135.278,-553.867 130.419,-549.215 135.649,-558.853 135.649,-558.853"/>
</g>
<!-- Brand -->
<g id="node5" class="node"><title>Brand</title>
<path fill="none" stroke="black" d="M11.5,-692.5C11.5,-692.5 118.5,-692.5 118.5,-692.5 124.5,-692.5 130.5,-698.5 130.5,-704.5 130.5,-704.5 130.5,-771.5 130.5,-771.5 130.5,-777.5 124.5,-783.5 118.5,-783.5 118.5,-783.5 11.5,-783.5 11.5,-783.5 5.5,-783.5 -0.5,-777.5 -0.5,-771.5 -0.5,-771.5 -0.5,-704.5 -0.5,-704.5 -0.5,-698.5 5.5,-692.5 11.5,-692.5"/>
<text text-anchor="middle" x="65" y="-768.3" font-family="Times,serif" font-size="14.00">Brand</text>
<polyline fill="none" stroke="black" points="-0.5,-760.5 130.5,-760.5 "/>
<text text-anchor="start" x="7.5" y="-745.3" font-family="Times,serif" font-size="14.00">id :INTEGER</text>
<text text-anchor="start" x="7.5" y="-730.3" font-family="Times,serif" font-size="14.00">name :varchar</text>
<text text-anchor="start" x="7.5" y="-715.3" font-family="Times,serif" font-size="14.00">created_at :datetime</text>
<text text-anchor="start" x="7.5" y="-700.3" font-family="Times,serif" font-size="14.00">updated_at :datetime</text>
</g>
<!-- Site&#45;&gt;Brand -->
<g id="edge6" class="edge"><title>Site&#45;&gt;Brand</title>
<path fill="none" stroke="#63474c" d="M383.255,-882.786C382.838,-882.521 382.42,-882.259 382,-882 337.057,-854.254 190.34,-891.094 145,-864 118.093,-847.921 98.693,-818.895 85.7412,-792.858"/>
<polygon fill="#63474c" stroke="#63474c" points="383.557,-882.998 389.175,-892.415 387.655,-885.862 391.753,-888.727 391.753,-888.727 391.753,-888.727 387.655,-885.862 394.332,-885.039 383.557,-882.998 383.557,-882.998"/>
<polygon fill="#63474c" stroke="#63474c" points="85.7269,-792.828 85.4901,-781.865 83.5771,-788.314 81.4273,-783.8 81.4273,-783.8 81.4273,-783.8 83.5771,-788.314 77.3644,-785.734 85.7269,-792.828 85.7269,-792.828"/>
</g>
<!-- SiteCategory -->
<g id="node7" class="node"><title>SiteCategory</title>
<path fill="none" stroke="black" d="M465.5,-1C465.5,-1 572.5,-1 572.5,-1 578.5,-1 584.5,-7 584.5,-13 584.5,-13 584.5,-95 584.5,-95 584.5,-101 578.5,-107 572.5,-107 572.5,-107 465.5,-107 465.5,-107 459.5,-107 453.5,-101 453.5,-95 453.5,-95 453.5,-13 453.5,-13 453.5,-7 459.5,-1 465.5,-1"/>
<text text-anchor="middle" x="519" y="-91.8" font-family="Times,serif" font-size="14.00">SiteCategory</text>
<polyline fill="none" stroke="black" points="453.5,-84 584.5,-84 "/>
<text text-anchor="start" x="461.5" y="-68.8" font-family="Times,serif" font-size="14.00">id :INTEGER</text>
<text text-anchor="start" x="461.5" y="-53.8" font-family="Times,serif" font-size="14.00">site_id :integer</text>
<text text-anchor="start" x="461.5" y="-38.8" font-family="Times,serif" font-size="14.00">category_id :integer</text>
<text text-anchor="start" x="461.5" y="-23.8" font-family="Times,serif" font-size="14.00">created_at :datetime</text>
<text text-anchor="start" x="461.5" y="-8.8" font-family="Times,serif" font-size="14.00">updated_at :datetime</text>
</g>
<!-- Site&#45;&gt;SiteCategory -->
<g id="edge5" class="edge"><title>Site&#45;&gt;SiteCategory</title>
<path fill="none" stroke="#7956e5" d="M558.221,-885.222C559.467,-884.126 560.727,-883.052 562,-882 599.943,-850.662 634.307,-881.647 666,-844 696.543,-807.72 685,-786.425 685,-739 685,-739 685,-739 685,-214 685,-159.378 637.546,-117.712 593.382,-90.7621"/>
<ellipse fill="none" stroke="#7956e5" cx="555.04" cy="-888.161" rx="4.00002" ry="4.00002"/>
<polygon fill="#7956e5" stroke="#7956e5" points="593.213,-90.6626 586.9,-81.6965 588.91,-88.1158 584.608,-85.569 584.608,-85.569 584.608,-85.569 588.91,-88.1158 582.315,-89.4415 593.213,-90.6626 593.213,-90.6626"/>
</g>
<!-- MenuItem -->
<g id="node11" class="node"><title>MenuItem</title>
<path fill="none" stroke="black" d="M503.5,-382.5C503.5,-382.5 610.5,-382.5 610.5,-382.5 616.5,-382.5 622.5,-388.5 622.5,-394.5 622.5,-394.5 622.5,-521.5 622.5,-521.5 622.5,-527.5 616.5,-533.5 610.5,-533.5 610.5,-533.5 503.5,-533.5 503.5,-533.5 497.5,-533.5 491.5,-527.5 491.5,-521.5 491.5,-521.5 491.5,-394.5 491.5,-394.5 491.5,-388.5 497.5,-382.5 503.5,-382.5"/>
<text text-anchor="middle" x="557" y="-518.3" font-family="Times,serif" font-size="14.00">MenuItem</text>
<polyline fill="none" stroke="black" points="491.5,-510.5 622.5,-510.5 "/>
<text text-anchor="start" x="499.5" y="-495.3" font-family="Times,serif" font-size="14.00">id :INTEGER</text>
<text text-anchor="start" x="499.5" y="-480.3" font-family="Times,serif" font-size="14.00">name :varchar</text>
<text text-anchor="start" x="499.5" y="-465.3" font-family="Times,serif" font-size="14.00">path :varchar</text>
<text text-anchor="start" x="499.5" y="-450.3" font-family="Times,serif" font-size="14.00">menu_type :integer</text>
<text text-anchor="start" x="499.5" y="-435.3" font-family="Times,serif" font-size="14.00">site_id :integer</text>
<text text-anchor="start" x="499.5" y="-420.3" font-family="Times,serif" font-size="14.00">page_id :integer</text>
<text text-anchor="start" x="499.5" y="-405.3" font-family="Times,serif" font-size="14.00">created_at :datetime</text>
<text text-anchor="start" x="499.5" y="-390.3" font-family="Times,serif" font-size="14.00">updated_at :datetime</text>
</g>
<!-- Site&#45;&gt;MenuItem -->
<g id="edge4" class="edge"><title>Site&#45;&gt;MenuItem</title>
<path fill="none" stroke="#f32916" d="M480.77,-874.039C486.464,-800.121 495.601,-711.13 510,-632 515.308,-602.829 523.174,-571.41 530.96,-543.458"/>
<ellipse fill="none" stroke="#f32916" cx="480.464" cy="-878.069" rx="4" ry="4"/>
<polygon fill="#f32916" stroke="#f32916" points="530.991,-543.349 538.037,-534.946 532.348,-538.536 533.706,-533.724 533.706,-533.724 533.706,-533.724 532.348,-538.536 529.375,-532.502 530.991,-543.349 530.991,-543.349"/>
</g>
<!-- Page -->
<g id="node12" class="node"><title>Page</title>
<path fill="none" stroke="black" d="M531,-632.5C531,-632.5 645,-632.5 645,-632.5 651,-632.5 657,-638.5 657,-644.5 657,-644.5 657,-831.5 657,-831.5 657,-837.5 651,-843.5 645,-843.5 645,-843.5 531,-843.5 531,-843.5 525,-843.5 519,-837.5 519,-831.5 519,-831.5 519,-644.5 519,-644.5 519,-638.5 525,-632.5 531,-632.5"/>
<text text-anchor="middle" x="588" y="-828.3" font-family="Times,serif" font-size="14.00">Page</text>
<polyline fill="none" stroke="black" points="519,-820.5 657,-820.5 "/>
<text text-anchor="start" x="527" y="-805.3" font-family="Times,serif" font-size="14.00">id :INTEGER</text>
<text text-anchor="start" x="527" y="-790.3" font-family="Times,serif" font-size="14.00">name :varchar</text>
<text text-anchor="start" x="527" y="-775.3" font-family="Times,serif" font-size="14.00">image :varchar</text>
<text text-anchor="start" x="527" y="-760.3" font-family="Times,serif" font-size="14.00">body :text</text>
<text text-anchor="start" x="527" y="-745.3" font-family="Times,serif" font-size="14.00">page_title :varchar</text>
<text text-anchor="start" x="527" y="-730.3" font-family="Times,serif" font-size="14.00">url_alias :varchar</text>
<text text-anchor="start" x="527" y="-715.3" font-family="Times,serif" font-size="14.00">meta_description :text</text>
<text text-anchor="start" x="527" y="-700.3" font-family="Times,serif" font-size="14.00">site_id :integer</text>
<text text-anchor="start" x="527" y="-685.3" font-family="Times,serif" font-size="14.00">published :boolean</text>
<text text-anchor="start" x="527" y="-670.3" font-family="Times,serif" font-size="14.00">all_sites :boolean</text>
<text text-anchor="start" x="527" y="-655.3" font-family="Times,serif" font-size="14.00">created_at :datetime</text>
<text text-anchor="start" x="527" y="-640.3" font-family="Times,serif" font-size="14.00">updated_at :datetime</text>
</g>
<!-- Site&#45;&gt;Page -->
<g id="edge2" class="edge"><title>Site&#45;&gt;Page</title>
<path fill="none" stroke="#c53f8c" d="M534.23,-874.815C537.098,-867.572 539.952,-860.364 542.763,-853.262"/>
<ellipse fill="none" stroke="#c53f8c" cx="532.662" cy="-878.777" rx="4.00001" ry="4.00001"/>
<polygon fill="#c53f8c" stroke="#c53f8c" points="542.887,-852.949 550.752,-845.308 544.728,-848.3 546.568,-843.651 546.568,-843.651 546.568,-843.651 544.728,-848.3 542.384,-841.994 542.887,-852.949 542.887,-852.949"/>
</g>
<!-- Category -->
<g id="node17" class="node"><title>Category</title>
<path fill="none" stroke="black" d="M383,-154.5C383,-154.5 507,-154.5 507,-154.5 513,-154.5 519,-160.5 519,-166.5 519,-166.5 519,-263.5 519,-263.5 519,-269.5 513,-275.5 507,-275.5 507,-275.5 383,-275.5 383,-275.5 377,-275.5 371,-269.5 371,-263.5 371,-263.5 371,-166.5 371,-166.5 371,-160.5 377,-154.5 383,-154.5"/>
<text text-anchor="middle" x="445" y="-260.3" font-family="Times,serif" font-size="14.00">Category</text>
<polyline fill="none" stroke="black" points="371,-252.5 519,-252.5 "/>
<text text-anchor="start" x="379" y="-237.3" font-family="Times,serif" font-size="14.00">id :INTEGER</text>
<text text-anchor="start" x="379" y="-222.3" font-family="Times,serif" font-size="14.00">name :varchar</text>
<text text-anchor="start" x="379" y="-207.3" font-family="Times,serif" font-size="14.00">machine_name :varchar</text>
<text text-anchor="start" x="379" y="-192.3" font-family="Times,serif" font-size="14.00">parent_id :integer</text>
<text text-anchor="start" x="379" y="-177.3" font-family="Times,serif" font-size="14.00">created_at :datetime</text>
<text text-anchor="start" x="379" y="-162.3" font-family="Times,serif" font-size="14.00">updated_at :datetime</text>
</g>
<!-- Site&#45;&gt;Category -->
<g id="edge1" class="edge"><title>Site&#45;&gt;Category</title>
<path fill="none" stroke="#027274" d="M466.709,-872.085C460.822,-694.165 451.577,-414.785 447.306,-285.685"/>
<polygon fill="#027274" stroke="#027274" points="466.717,-872.338 462.55,-882.482 466.882,-877.336 467.048,-882.333 467.048,-882.333 467.048,-882.333 466.882,-877.336 471.545,-882.184 466.717,-872.338 466.717,-872.338"/>
<polygon fill="#027274" stroke="#027274" points="447.301,-285.527 451.467,-275.384 447.135,-280.53 446.97,-275.533 446.97,-275.533 446.97,-275.533 447.135,-280.53 442.472,-275.681 447.301,-285.527 447.301,-285.527"/>
</g>
<!-- Categorisation -->
<g id="node8" class="node"><title>Categorisation</title>
<path fill="none" stroke="black" d="M151.5,-1C151.5,-1 258.5,-1 258.5,-1 264.5,-1 270.5,-7 270.5,-13 270.5,-13 270.5,-95 270.5,-95 270.5,-101 264.5,-107 258.5,-107 258.5,-107 151.5,-107 151.5,-107 145.5,-107 139.5,-101 139.5,-95 139.5,-95 139.5,-13 139.5,-13 139.5,-7 145.5,-1 151.5,-1"/>
<text text-anchor="middle" x="205" y="-91.8" font-family="Times,serif" font-size="14.00">Categorisation</text>
<polyline fill="none" stroke="black" points="139.5,-84 270.5,-84 "/>
<text text-anchor="start" x="147.5" y="-68.8" font-family="Times,serif" font-size="14.00">id :INTEGER</text>
<text text-anchor="start" x="147.5" y="-53.8" font-family="Times,serif" font-size="14.00">category_id :integer</text>
<text text-anchor="start" x="147.5" y="-38.8" font-family="Times,serif" font-size="14.00">product_id :integer</text>
<text text-anchor="start" x="147.5" y="-23.8" font-family="Times,serif" font-size="14.00">created_at :datetime</text>
<text text-anchor="start" x="147.5" y="-8.8" font-family="Times,serif" font-size="14.00">updated_at :datetime</text>
</g>
<!-- Product&#45;&gt;Categorisation -->
<g id="edge7" class="edge"><title>Product&#45;&gt;Categorisation</title>
<path fill="none" stroke="#99fe66" d="M73.5087,-360.13C44.6704,-296.072 22.3405,-212.047 59,-146 74.4972,-118.08 102.515,-97.6084 129.892,-83.2339"/>
<ellipse fill="none" stroke="#99fe66" cx="75.1992" cy="-363.81" rx="4.00002" ry="4.00002"/>
<polygon fill="#99fe66" stroke="#99fe66" points="130.198,-83.0805 141.154,-82.6118 134.666,-80.8356 139.133,-78.5908 139.133,-78.5908 139.133,-78.5908 134.666,-80.8356 137.113,-74.5698 130.198,-83.0805 130.198,-83.0805"/>
</g>
<!-- ProductImage -->
<g id="node10" class="node"><title>ProductImage</title>
<path fill="none" stroke="black" d="M80.5,-162C80.5,-162 187.5,-162 187.5,-162 193.5,-162 199.5,-168 199.5,-174 199.5,-174 199.5,-256 199.5,-256 199.5,-262 193.5,-268 187.5,-268 187.5,-268 80.5,-268 80.5,-268 74.5,-268 68.5,-262 68.5,-256 68.5,-256 68.5,-174 68.5,-174 68.5,-168 74.5,-162 80.5,-162"/>
<text text-anchor="middle" x="134" y="-252.8" font-family="Times,serif" font-size="14.00">ProductImage</text>
<polyline fill="none" stroke="black" points="68.5,-245 199.5,-245 "/>
<text text-anchor="start" x="76.5" y="-229.8" font-family="Times,serif" font-size="14.00">id :INTEGER</text>
<text text-anchor="start" x="76.5" y="-214.8" font-family="Times,serif" font-size="14.00">image :varchar</text>
<text text-anchor="start" x="76.5" y="-199.8" font-family="Times,serif" font-size="14.00">product_id :integer</text>
<text text-anchor="start" x="76.5" y="-184.8" font-family="Times,serif" font-size="14.00">created_at :datetime</text>
<text text-anchor="start" x="76.5" y="-169.8" font-family="Times,serif" font-size="14.00">updated_at :datetime</text>
</g>
<!-- Product&#45;&gt;ProductImage -->
<g id="edge9" class="edge"><title>Product&#45;&gt;ProductImage</title>
<path fill="none" stroke="#7ac7c0" d="M131.034,-358.965C131.599,-331.706 132.198,-302.856 132.708,-278.267"/>
<ellipse fill="none" stroke="#7ac7c0" cx="130.945" cy="-363.261" rx="4" ry="4"/>
<polygon fill="#7ac7c0" stroke="#7ac7c0" points="132.714,-278.004 137.42,-268.099 132.817,-273.005 132.921,-268.006 132.921,-268.006 132.921,-268.006 132.817,-273.005 128.422,-267.913 132.714,-278.004 132.714,-278.004"/>
</g>
<!-- CartItem -->
<g id="node14" class="node"><title>CartItem</title>
<path fill="none" stroke="black" d="M229.5,-147C229.5,-147 336.5,-147 336.5,-147 342.5,-147 348.5,-153 348.5,-159 348.5,-159 348.5,-271 348.5,-271 348.5,-277 342.5,-283 336.5,-283 336.5,-283 229.5,-283 229.5,-283 223.5,-283 217.5,-277 217.5,-271 217.5,-271 217.5,-159 217.5,-159 217.5,-153 223.5,-147 229.5,-147"/>
<text text-anchor="middle" x="283" y="-267.8" font-family="Times,serif" font-size="14.00">CartItem</text>
<polyline fill="none" stroke="black" points="217.5,-260 348.5,-260 "/>
<text text-anchor="start" x="225.5" y="-244.8" font-family="Times,serif" font-size="14.00">id :INTEGER</text>
<text text-anchor="start" x="225.5" y="-229.8" font-family="Times,serif" font-size="14.00">cart_id :integer</text>
<text text-anchor="start" x="225.5" y="-214.8" font-family="Times,serif" font-size="14.00">product_id :integer</text>
<text text-anchor="start" x="225.5" y="-199.8" font-family="Times,serif" font-size="14.00">order_id :integer</text>
<text text-anchor="start" x="225.5" y="-184.8" font-family="Times,serif" font-size="14.00">quantity :integer</text>
<text text-anchor="start" x="225.5" y="-169.8" font-family="Times,serif" font-size="14.00">created_at :datetime</text>
<text text-anchor="start" x="225.5" y="-154.8" font-family="Times,serif" font-size="14.00">updated_at :datetime</text>
</g>
<!-- Product&#45;&gt;CartItem -->
<g id="edge10" class="edge"><title>Product&#45;&gt;CartItem</title>
<path fill="none" stroke="#d0e8a2" d="M174.616,-360.013C185.097,-340.322 196.782,-320.11 209,-302 211.355,-298.51 213.832,-295.003 216.395,-291.506"/>
<ellipse fill="none" stroke="#d0e8a2" cx="172.674" cy="-363.7" rx="4.00002" ry="4.00002"/>
<polygon fill="#d0e8a2" stroke="#d0e8a2" points="216.499,-291.368 226.109,-286.086 219.507,-287.374 222.514,-283.379 222.514,-283.379 222.514,-283.379 219.507,-287.374 218.919,-280.673 216.499,-291.368 216.499,-291.368"/>
</g>
<!-- Product&#45;&gt;Category -->
<g id="edge8" class="edge"><title>Product&#45;&gt;Category</title>
<path fill="none" stroke="#707d16" d="M199.501,-359.831C212.78,-345.794 227.431,-332.552 243,-322 287.21,-292.036 309.872,-309.126 357,-284 358.973,-282.948 360.947,-281.853 362.918,-280.719"/>
<polygon fill="#707d16" stroke="#707d16" points="199.458,-359.878 189.374,-364.186 196.071,-363.556 192.684,-367.234 192.684,-367.234 192.684,-367.234 196.071,-363.556 195.995,-370.282 199.458,-359.878 199.458,-359.878"/>
<polygon fill="#707d16" stroke="#707d16" points="362.969,-280.689 373.856,-279.38 367.251,-278.107 371.533,-275.526 371.533,-275.526 371.533,-275.526 367.251,-278.107 369.21,-271.672 362.969,-280.689 362.969,-280.689"/>
</g>
<!-- Brand&#45;&gt;Product -->
<g id="edge11" class="edge"><title>Brand&#45;&gt;Product</title>
<path fill="none" stroke="#b0da11" d="M77.1072,-684.409C85.2668,-648.966 96.2865,-601.099 106.072,-558.593"/>
<ellipse fill="none" stroke="#b0da11" cx="76.1801" cy="-688.436" rx="4.00001" ry="4.00001"/>
<polygon fill="#b0da11" stroke="#b0da11" points="106.091,-558.51 112.72,-549.775 107.213,-553.638 108.335,-548.765 108.335,-548.765 108.335,-548.765 107.213,-553.638 103.949,-547.756 106.091,-558.51 106.091,-558.51"/>
</g>
<!-- ProductImport -->
<g id="node6" class="node"><title>ProductImport</title>
<path fill="none" stroke="black" d="M582.5,-987.5C582.5,-987.5 689.5,-987.5 689.5,-987.5 695.5,-987.5 701.5,-993.5 701.5,-999.5 701.5,-999.5 701.5,-1066.5 701.5,-1066.5 701.5,-1072.5 695.5,-1078.5 689.5,-1078.5 689.5,-1078.5 582.5,-1078.5 582.5,-1078.5 576.5,-1078.5 570.5,-1072.5 570.5,-1066.5 570.5,-1066.5 570.5,-999.5 570.5,-999.5 570.5,-993.5 576.5,-987.5 582.5,-987.5"/>
<text text-anchor="middle" x="636" y="-1063.3" font-family="Times,serif" font-size="14.00">ProductImport</text>
<polyline fill="none" stroke="black" points="570.5,-1055.5 701.5,-1055.5 "/>
<text text-anchor="start" x="578.5" y="-1040.3" font-family="Times,serif" font-size="14.00">id :INTEGER</text>
<text text-anchor="start" x="578.5" y="-1025.3" font-family="Times,serif" font-size="14.00">file :varchar</text>
<text text-anchor="start" x="578.5" y="-1010.3" font-family="Times,serif" font-size="14.00">created_at :datetime</text>
<text text-anchor="start" x="578.5" y="-995.3" font-family="Times,serif" font-size="14.00">updated_at :datetime</text>
</g>
<!-- Address -->
<g id="node9" class="node"><title>Address</title>
<path fill="none" stroke="black" d="M732,-935C732,-935 840,-935 840,-935 846,-935 852,-941 852,-947 852,-947 852,-1119 852,-1119 852,-1125 846,-1131 840,-1131 840,-1131 732,-1131 732,-1131 726,-1131 720,-1125 720,-1119 720,-1119 720,-947 720,-947 720,-941 726,-935 732,-935"/>
<text text-anchor="middle" x="786" y="-1115.8" font-family="Times,serif" font-size="14.00">Address</text>
<polyline fill="none" stroke="black" points="720,-1108 852,-1108 "/>
<text text-anchor="start" x="728" y="-1092.8" font-family="Times,serif" font-size="14.00">id :INTEGER</text>
<text text-anchor="start" x="728" y="-1077.8" font-family="Times,serif" font-size="14.00">name :varchar</text>
<text text-anchor="start" x="728" y="-1062.8" font-family="Times,serif" font-size="14.00">address_one :varchar</text>
<text text-anchor="start" x="728" y="-1047.8" font-family="Times,serif" font-size="14.00">address_two :varchar</text>
<text text-anchor="start" x="728" y="-1032.8" font-family="Times,serif" font-size="14.00">city :varchar</text>
<text text-anchor="start" x="728" y="-1017.8" font-family="Times,serif" font-size="14.00">county :varchar</text>
<text text-anchor="start" x="728" y="-1002.8" font-family="Times,serif" font-size="14.00">postcode :varchar</text>
<text text-anchor="start" x="728" y="-987.8" font-family="Times,serif" font-size="14.00">country :varchar</text>
<text text-anchor="start" x="728" y="-972.8" font-family="Times,serif" font-size="14.00">user_id :integer</text>
<text text-anchor="start" x="728" y="-957.8" font-family="Times,serif" font-size="14.00">created_at :datetime</text>
<text text-anchor="start" x="728" y="-942.8" font-family="Times,serif" font-size="14.00">updated_at :datetime</text>
</g>
<!-- Page&#45;&gt;MenuItem -->
<g id="edge12" class="edge"><title>Page&#45;&gt;MenuItem</title>
<path fill="none" stroke="#b2af6e" d="M575.419,-624.178C572.421,-597.292 569.272,-569.051 566.442,-543.676"/>
<ellipse fill="none" stroke="#b2af6e" cx="575.881" cy="-628.321" rx="4.00001" ry="4.00001"/>
<polygon fill="#b2af6e" stroke="#b2af6e" points="566.442,-543.671 569.806,-533.234 565.888,-538.702 565.333,-533.732 565.333,-533.732 565.333,-533.732 565.888,-538.702 560.861,-534.231 566.442,-543.671 566.442,-543.671"/>
</g>
<!-- Image -->
<g id="node13" class="node"><title>Image</title>
<path fill="none" stroke="black" d="M882.5,-987.5C882.5,-987.5 989.5,-987.5 989.5,-987.5 995.5,-987.5 1001.5,-993.5 1001.5,-999.5 1001.5,-999.5 1001.5,-1066.5 1001.5,-1066.5 1001.5,-1072.5 995.5,-1078.5 989.5,-1078.5 989.5,-1078.5 882.5,-1078.5 882.5,-1078.5 876.5,-1078.5 870.5,-1072.5 870.5,-1066.5 870.5,-1066.5 870.5,-999.5 870.5,-999.5 870.5,-993.5 876.5,-987.5 882.5,-987.5"/>
<text text-anchor="middle" x="936" y="-1063.3" font-family="Times,serif" font-size="14.00">Image</text>
<polyline fill="none" stroke="black" points="870.5,-1055.5 1001.5,-1055.5 "/>
<text text-anchor="start" x="878.5" y="-1040.3" font-family="Times,serif" font-size="14.00">id :INTEGER</text>
<text text-anchor="start" x="878.5" y="-1025.3" font-family="Times,serif" font-size="14.00">image :varchar</text>
<text text-anchor="start" x="878.5" y="-1010.3" font-family="Times,serif" font-size="14.00">created_at :datetime</text>
<text text-anchor="start" x="878.5" y="-995.3" font-family="Times,serif" font-size="14.00">updated_at :datetime</text>
</g>
<!-- Cart -->
<g id="node15" class="node"><title>Cart</title>
<path fill="none" stroke="black" d="M199.5,-700C199.5,-700 306.5,-700 306.5,-700 312.5,-700 318.5,-706 318.5,-712 318.5,-712 318.5,-764 318.5,-764 318.5,-770 312.5,-776 306.5,-776 306.5,-776 199.5,-776 199.5,-776 193.5,-776 187.5,-770 187.5,-764 187.5,-764 187.5,-712 187.5,-712 187.5,-706 193.5,-700 199.5,-700"/>
<text text-anchor="middle" x="253" y="-760.8" font-family="Times,serif" font-size="14.00">Cart</text>
<polyline fill="none" stroke="black" points="187.5,-753 318.5,-753 "/>
<text text-anchor="start" x="195.5" y="-737.8" font-family="Times,serif" font-size="14.00">id :INTEGER</text>
<text text-anchor="start" x="195.5" y="-722.8" font-family="Times,serif" font-size="14.00">created_at :datetime</text>
<text text-anchor="start" x="195.5" y="-707.8" font-family="Times,serif" font-size="14.00">updated_at :datetime</text>
</g>
<!-- Cart&#45;&gt;Product -->
<g id="edge14" class="edge"><title>Cart&#45;&gt;Product</title>
<path fill="none" stroke="#49509f" d="M232.203,-690.374C216.099,-654.27 193.218,-602.973 173.092,-557.851"/>
<polygon fill="#49509f" stroke="#49509f" points="232.332,-690.663 232.296,-701.629 234.369,-695.23 236.405,-699.796 236.405,-699.796 236.405,-699.796 234.369,-695.23 240.515,-697.963 232.332,-690.663 232.332,-690.663"/>
<polygon fill="#49509f" stroke="#49509f" points="173.048,-557.753 173.084,-546.787 171.011,-553.186 168.974,-548.62 168.974,-548.62 168.974,-548.62 171.011,-553.186 164.865,-550.453 173.048,-557.753 173.048,-557.753"/>
</g>
<!-- Cart&#45;&gt;CartItem -->
<g id="edge13" class="edge"><title>Cart&#45;&gt;CartItem</title>
<path fill="none" stroke="#203c7a" d="M245.972,-691.923C235.331,-615.216 218.793,-454.71 243,-322 244.76,-312.349 247.353,-302.435 250.387,-292.727"/>
<ellipse fill="none" stroke="#203c7a" cx="246.55" cy="-696.008" rx="4.00001" ry="4.00001"/>
<polygon fill="#203c7a" stroke="#203c7a" points="250.427,-292.604 257.828,-284.512 251.99,-287.855 253.553,-283.105 253.553,-283.105 253.553,-283.105 251.99,-287.855 249.279,-281.699 250.427,-292.604 250.427,-292.604"/>
</g>
<!-- Order -->
<g id="node16" class="node"><title>Order</title>
<path fill="none" stroke="black" d="M263.5,-322.5C263.5,-322.5 412.5,-322.5 412.5,-322.5 418.5,-322.5 424.5,-328.5 424.5,-334.5 424.5,-334.5 424.5,-581.5 424.5,-581.5 424.5,-587.5 418.5,-593.5 412.5,-593.5 412.5,-593.5 263.5,-593.5 263.5,-593.5 257.5,-593.5 251.5,-587.5 251.5,-581.5 251.5,-581.5 251.5,-334.5 251.5,-334.5 251.5,-328.5 257.5,-322.5 263.5,-322.5"/>
<text text-anchor="middle" x="338" y="-578.3" font-family="Times,serif" font-size="14.00">Order</text>
<polyline fill="none" stroke="black" points="251.5,-570.5 424.5,-570.5 "/>
<text text-anchor="start" x="259.5" y="-555.3" font-family="Times,serif" font-size="14.00">id :INTEGER</text>
<text text-anchor="start" x="259.5" y="-540.3" font-family="Times,serif" font-size="14.00">user_id :integer</text>
<text text-anchor="start" x="259.5" y="-525.3" font-family="Times,serif" font-size="14.00">billing_address_id :integer</text>
<text text-anchor="start" x="259.5" y="-510.3" font-family="Times,serif" font-size="14.00">shipping_address_id :integer</text>
<text text-anchor="start" x="259.5" y="-495.3" font-family="Times,serif" font-size="14.00">status :varchar</text>
<text text-anchor="start" x="259.5" y="-480.3" font-family="Times,serif" font-size="14.00">payment_type :varchar</text>
<text text-anchor="start" x="259.5" y="-465.3" font-family="Times,serif" font-size="14.00">shipping_type :varchar</text>
<text text-anchor="start" x="259.5" y="-450.3" font-family="Times,serif" font-size="14.00">created_at :datetime</text>
<text text-anchor="start" x="259.5" y="-435.3" font-family="Times,serif" font-size="14.00">updated_at :datetime</text>
<text text-anchor="start" x="259.5" y="-420.3" font-family="Times,serif" font-size="14.00">name :varchar</text>
<text text-anchor="start" x="259.5" y="-405.3" font-family="Times,serif" font-size="14.00">email :varchar</text>
<text text-anchor="start" x="259.5" y="-390.3" font-family="Times,serif" font-size="14.00">ip :varchar</text>
<text text-anchor="start" x="259.5" y="-375.3" font-family="Times,serif" font-size="14.00">express_token :varchar</text>
<text text-anchor="start" x="259.5" y="-360.3" font-family="Times,serif" font-size="14.00">express_payer_id :varchar</text>
<text text-anchor="start" x="259.5" y="-345.3" font-family="Times,serif" font-size="14.00">purchased_at :datetime</text>
<text text-anchor="start" x="259.5" y="-330.3" font-family="Times,serif" font-size="14.00">amount :decimal</text>
</g>
<!-- Order&#45;&gt;CartItem -->
<g id="edge15" class="edge"><title>Order&#45;&gt;CartItem</title>
<path fill="none" stroke="#f41a9b" d="M305.475,-314.48C303.814,-307.201 302.178,-300.033 300.592,-293.087"/>
<ellipse fill="none" stroke="#f41a9b" cx="306.394" cy="-318.508" rx="4.00001" ry="4.00001"/>
<polygon fill="#f41a9b" stroke="#f41a9b" points="300.534,-292.831 302.696,-282.081 299.422,-287.957 298.309,-283.082 298.309,-283.082 298.309,-283.082 299.422,-287.957 293.922,-284.083 300.534,-292.831 300.534,-292.831"/>
</g>
<!-- Category&#45;&gt;SiteCategory -->
<g id="edge17" class="edge"><title>Category&#45;&gt;SiteCategory</title>
<path fill="none" stroke="#e8f465" d="M476.181,-147.003C480.926,-136.808 485.802,-126.331 490.486,-116.266"/>
<ellipse fill="none" stroke="#e8f465" cx="474.453" cy="-150.715" rx="4.00002" ry="4.00002"/>
<polygon fill="#e8f465" stroke="#e8f465" points="490.505,-116.225 498.805,-109.058 492.615,-111.692 494.725,-107.159 494.725,-107.159 494.725,-107.159 492.615,-111.692 490.645,-105.26 490.505,-116.225 490.505,-116.225"/>
</g>
<!-- Category&#45;&gt;Categorisation -->
<g id="edge16" class="edge"><title>Category&#45;&gt;Categorisation</title>
<path fill="none" stroke="#59832f" d="M363.747,-150.672C361.485,-149.083 359.233,-147.523 357,-146 332.34,-129.177 304.531,-112.031 279.504,-97.2233"/>
<ellipse fill="none" stroke="#59832f" cx="367.295" cy="-153.194" rx="4.00002" ry="4.00002"/>
<polygon fill="#59832f" stroke="#59832f" points="279.396,-97.1597 273.06,-88.2095 275.087,-94.6237 270.778,-92.0877 270.778,-92.0877 270.778,-92.0877 275.087,-94.6237 268.496,-95.966 279.396,-97.1597 279.396,-97.1597"/>
</g>
<!-- Category&#45;&gt;Category -->
<g id="edge18" class="edge"><title>Category&#45;&gt;Category</title>
<path fill="none" stroke="#2642d9" d="M527.363,-227.183C533.341,-224.435 537,-220.374 537,-215 537,-210.094 533.949,-206.281 528.869,-203.563"/>
<ellipse fill="none" stroke="#2642d9" cx="523.161" cy="-228.561" rx="4.00001" ry="4.00001"/>
<polygon fill="#2642d9" stroke="#2642d9" points="528.786,-203.534 520.864,-195.951 524.073,-201.863 519.36,-200.193 519.36,-200.193 519.36,-200.193 524.073,-201.863 517.857,-204.434 528.786,-203.534 528.786,-203.534"/>
<text text-anchor="middle" x="559.5" y="-211.3" font-family="Times,serif" font-size="14.00">children</text>
</g>
<!-- Enquiry -->
<g id="node18" class="node"><title>Enquiry</title>
<path fill="none" stroke="black" d="M1031.5,-972.5C1031.5,-972.5 1138.5,-972.5 1138.5,-972.5 1144.5,-972.5 1150.5,-978.5 1150.5,-984.5 1150.5,-984.5 1150.5,-1081.5 1150.5,-1081.5 1150.5,-1087.5 1144.5,-1093.5 1138.5,-1093.5 1138.5,-1093.5 1031.5,-1093.5 1031.5,-1093.5 1025.5,-1093.5 1019.5,-1087.5 1019.5,-1081.5 1019.5,-1081.5 1019.5,-984.5 1019.5,-984.5 1019.5,-978.5 1025.5,-972.5 1031.5,-972.5"/>
<text text-anchor="middle" x="1085" y="-1078.3" font-family="Times,serif" font-size="14.00">Enquiry</text>
<polyline fill="none" stroke="black" points="1019.5,-1070.5 1150.5,-1070.5 "/>
<text text-anchor="start" x="1027.5" y="-1055.3" font-family="Times,serif" font-size="14.00">id :INTEGER</text>
<text text-anchor="start" x="1027.5" y="-1040.3" font-family="Times,serif" font-size="14.00">name :varchar</text>
<text text-anchor="start" x="1027.5" y="-1025.3" font-family="Times,serif" font-size="14.00">email :varchar</text>
<text text-anchor="start" x="1027.5" y="-1010.3" font-family="Times,serif" font-size="14.00">body :text</text>
<text text-anchor="start" x="1027.5" y="-995.3" font-family="Times,serif" font-size="14.00">created_at :datetime</text>
<text text-anchor="start" x="1027.5" y="-980.3" font-family="Times,serif" font-size="14.00">updated_at :datetime</text>
</g>
</g>
</svg>
