<?xml version="1.0" encoding="UTF-8" standalone="no"?>
<!DOCTYPE svg PUBLIC "-//W3C//DTD SVG 1.1//EN"
 "http://www.w3.org/Graphics/SVG/1.1/DTD/svg11.dtd">
<!-- Generated by graphviz version 2.36.0 (20140111.2315)
 -->
<!-- Title: models_diagram Pages: 1 -->
<svg width="697pt" height="302pt"
 viewBox="0.00 0.00 697.00 302.00" xmlns="http://www.w3.org/2000/svg" xmlns:xlink="http://www.w3.org/1999/xlink">
<g id="graph0" class="graph" transform="scale(1 1) rotate(0) translate(4 298)">
<title>models_diagram</title>
<polygon fill="none" stroke="none" points="-4,4 -4,-298 693,-298 693,4 -4,4"/>
<!-- _diagram_info -->
<g id="node1" class="node"><title>_diagram_info</title>
<text text-anchor="start" x="8" y="-279.6" font-family="Times,serif" font-size="13.00">Models diagram</text>
<text text-anchor="start" x="8" y="-265.6" font-family="Times,serif" font-size="13.00">Date: Apr 01 2016 &#45; 15:24</text>
<text text-anchor="start" x="8" y="-251.6" font-family="Times,serif" font-size="13.00">Migration version: 20160401132451</text>
<text text-anchor="start" x="8" y="-237.6" font-family="Times,serif" font-size="13.00">Generated by RailRoady 1.4.2</text>
<text text-anchor="start" x="8" y="-223.6" font-family="Times,serif" font-size="13.00">http://railroady.prestonlee.com</text>
</g>
<!-- Site -->
<g id="node2" class="node"><title>Site</title>
<ellipse fill="none" stroke="black" cx="341" cy="-255" rx="27" ry="18"/>
<text text-anchor="middle" x="341" y="-251.3" font-family="Times,serif" font-size="14.00">Site</text>
</g>
<!-- Product -->
<g id="node3" class="node"><title>Product</title>
<ellipse fill="none" stroke="black" cx="275" cy="-162" rx="38.0212" ry="18"/>
<text text-anchor="middle" x="275" y="-158.3" font-family="Times,serif" font-size="14.00">Product</text>
</g>
<!-- Site&#45;&gt;Product -->
<g id="edge4" class="edge"><title>Site&#45;&gt;Product</title>
<path fill="none" stroke="#838ca6" d="M323.767,-230.239C314.262,-217.134 302.476,-200.883 292.871,-187.641"/>
<polygon fill="#838ca6" stroke="#838ca6" points="323.933,-230.468 326.161,-241.205 326.868,-234.516 329.804,-238.563 329.804,-238.563 329.804,-238.563 326.868,-234.516 333.447,-235.921 323.933,-230.468 323.933,-230.468"/>
<polygon fill="#838ca6" stroke="#838ca6" points="292.792,-187.532 290.564,-176.795 289.857,-183.484 286.921,-179.437 286.921,-179.437 286.921,-179.437 289.857,-183.484 283.278,-182.079 292.792,-187.532 292.792,-187.532"/>
</g>
<!-- SiteCategory -->
<g id="node5" class="node"><title>SiteCategory</title>
<ellipse fill="none" stroke="black" cx="102" cy="-18" rx="56.3173" ry="18"/>
<text text-anchor="middle" x="102" y="-14.3" font-family="Times,serif" font-size="14.00">SiteCategory</text>
</g>
<!-- Site&#45;&gt;SiteCategory -->
<g id="edge2" class="edge"><title>Site&#45;&gt;SiteCategory</title>
<path fill="none" stroke="#45210e" d="M323.24,-232.453C317.785,-226.647 311.495,-220.685 305,-216 215.037,-151.11 138.828,-202.039 80,-108 68.0128,-88.8379 76.0943,-63.5486 85.6682,-44.8262"/>
<ellipse fill="none" stroke="#45210e" cx="326.125" cy="-235.652" rx="4.00002" ry="4.00002"/>
<polygon fill="#45210e" stroke="#45210e" points="85.7287,-44.7164 94.4991,-38.1339 88.1438,-40.3384 90.5589,-35.9603 90.5589,-35.9603 90.5589,-35.9603 88.1438,-40.3384 86.6186,-33.7867 85.7287,-44.7164 85.7287,-44.7164"/>
</g>
<!-- MenuItem -->
<g id="node9" class="node"><title>MenuItem</title>
<ellipse fill="none" stroke="black" cx="407" cy="-18" rx="48.1437" ry="18"/>
<text text-anchor="middle" x="407" y="-14.3" font-family="Times,serif" font-size="14.00">MenuItem</text>
</g>
<!-- Site&#45;&gt;MenuItem -->
<g id="edge1" class="edge"><title>Site&#45;&gt;MenuItem</title>
<path fill="none" stroke="#be7872" d="M365.185,-236.289C396.567,-211.633 449.807,-163.671 471,-108 476.692,-93.0469 477.809,-86.479 471,-72 464.726,-58.6584 453.262,-47.5226 441.752,-38.9577"/>
<ellipse fill="none" stroke="#be7872" cx="362.005" cy="-238.745" rx="4.00002" ry="4.00002"/>
<polygon fill="#be7872" stroke="#be7872" points="441.648,-38.886 436.003,-29.4849 437.542,-36.0333 433.436,-33.1806 433.436,-33.1806 433.436,-33.1806 437.542,-36.0333 430.868,-36.8764 441.648,-38.886 441.648,-38.886"/>
</g>
<!-- Category -->
<g id="node13" class="node"><title>Category</title>
<ellipse fill="none" stroke="black" cx="308" cy="-90" rx="42.3456" ry="18"/>
<text text-anchor="middle" x="308" y="-86.3" font-family="Times,serif" font-size="14.00">Category</text>
</g>
<!-- Site&#45;&gt;Category -->
<g id="edge3" class="edge"><title>Site&#45;&gt;Category</title>
<path fill="none" stroke="#226c42" d="M336.957,-226.664C333.491,-204.329 328.102,-171.989 322,-144 320.147,-135.501 317.832,-126.314 315.622,-118.014"/>
<polygon fill="#226c42" stroke="#226c42" points="336.99,-226.876 334.05,-237.441 337.744,-231.819 338.499,-236.762 338.499,-236.762 338.499,-236.762 337.744,-231.819 342.947,-236.083 336.99,-226.876 336.99,-226.876"/>
<polygon fill="#226c42" stroke="#226c42" points="315.548,-117.743 317.263,-106.912 314.235,-112.918 312.921,-108.094 312.921,-108.094 312.921,-108.094 314.235,-112.918 308.579,-109.276 315.548,-117.743 315.548,-117.743"/>
</g>
<!-- Categorisation -->
<g id="node6" class="node"><title>Categorisation</title>
<ellipse fill="none" stroke="black" cx="258" cy="-18" rx="61.6163" ry="18"/>
<text text-anchor="middle" x="258" y="-14.3" font-family="Times,serif" font-size="14.00">Categorisation</text>
</g>
<!-- Product&#45;&gt;Categorisation -->
<g id="edge8" class="edge"><title>Product&#45;&gt;Categorisation</title>
<path fill="none" stroke="#e7bd5b" d="M264.25,-136.547C260.909,-127.729 257.666,-117.585 256,-108 252.449,-87.5721 253.169,-64.1129 254.659,-46.4095"/>
<ellipse fill="none" stroke="#e7bd5b" cx="265.825" cy="-140.503" rx="4.00001" ry="4.00001"/>
<polygon fill="#e7bd5b" stroke="#e7bd5b" points="254.683,-46.1616 260.133,-36.6462 255.169,-41.1853 255.655,-36.209 255.655,-36.209 255.655,-36.209 255.169,-41.1853 251.176,-35.7717 254.683,-46.1616 254.683,-46.1616"/>
</g>
<!-- ProductImage -->
<g id="node8" class="node"><title>ProductImage</title>
<ellipse fill="none" stroke="black" cx="149" cy="-90" rx="60.1672" ry="18"/>
<text text-anchor="middle" x="149" y="-86.3" font-family="Times,serif" font-size="14.00">ProductImage</text>
</g>
<!-- Product&#45;&gt;ProductImage -->
<g id="edge6" class="edge"><title>Product&#45;&gt;ProductImage</title>
<path fill="none" stroke="#83876e" d="M244.269,-143.927C226.489,-134.05 204.012,-121.562 185.356,-111.198"/>
<ellipse fill="none" stroke="#83876e" cx="247.804" cy="-145.891" rx="4.00002" ry="4.00002"/>
<polygon fill="#83876e" stroke="#83876e" points="185.283,-111.157 178.727,-102.367 180.913,-108.729 176.542,-106.301 176.542,-106.301 176.542,-106.301 180.913,-108.729 174.356,-110.235 185.283,-111.157 185.283,-111.157"/>
</g>
<!-- Product&#45;&gt;MenuItem -->
<g id="edge7" class="edge"><title>Product&#45;&gt;MenuItem</title>
<path fill="none" stroke="#a13da4" d="M308.751,-144.945C325.363,-135.826 344.813,-123.19 359,-108 376.041,-89.7546 388.961,-64.3154 397.081,-45.3054"/>
<ellipse fill="none" stroke="#a13da4" cx="304.879" cy="-147.005" rx="4.00002" ry="4.00002"/>
<polygon fill="#a13da4" stroke="#a13da4" points="397.093,-45.2756 405.049,-37.7292 398.989,-40.6491 400.885,-36.0226 400.885,-36.0226 400.885,-36.0226 398.989,-40.6491 396.721,-34.316 397.093,-45.2756 397.093,-45.2756"/>
</g>
<!-- CartItem -->
<g id="node11" class="node"><title>CartItem</title>
<ellipse fill="none" stroke="black" cx="561" cy="-90" rx="42.3701" ry="18"/>
<text text-anchor="middle" x="561" y="-86.3" font-family="Times,serif" font-size="14.00">CartItem</text>
</g>
<!-- Product&#45;&gt;CartItem -->
<g id="edge5" class="edge"><title>Product&#45;&gt;CartItem</title>
<path fill="none" stroke="#00ab69" d="M316.034,-150.957C368.829,-138.035 460.268,-115.655 515.252,-102.197"/>
<ellipse fill="none" stroke="#00ab69" cx="311.973" cy="-151.951" rx="4.00001" ry="4.00001"/>
<polygon fill="#00ab69" stroke="#00ab69" points="515.363,-102.17 526.146,-104.163 520.22,-100.981 525.077,-99.7925 525.077,-99.7925 525.077,-99.7925 520.22,-100.981 524.007,-95.4215 515.363,-102.17 515.363,-102.17"/>
</g>
<!-- Product&#45;&gt;Category -->
<g id="edge9" class="edge"><title>Product&#45;&gt;Category</title>
<path fill="none" stroke="#fbd1fa" d="M287.256,-135.002C290.004,-129.173 292.92,-122.987 295.671,-117.152"/>
<polygon fill="#fbd1fa" stroke="#fbd1fa" points="287.253,-135.01 278.918,-142.136 285.121,-139.532 282.988,-144.055 282.988,-144.055 282.988,-144.055 285.121,-139.532 287.059,-145.974 287.253,-135.01 287.253,-135.01"/>
<polygon fill="#fbd1fa" stroke="#fbd1fa" points="295.821,-116.834 304.156,-109.708 297.953,-112.312 300.085,-107.789 300.085,-107.789 300.085,-107.789 297.953,-112.312 296.015,-105.87 295.821,-116.834 295.821,-116.834"/>
</g>
<!-- Brand -->
<g id="node4" class="node"><title>Brand</title>
<ellipse fill="none" stroke="black" cx="264" cy="-255" rx="32.2457" ry="18"/>
<text text-anchor="middle" x="264" y="-251.3" font-family="Times,serif" font-size="14.00">Brand</text>
</g>
<!-- Brand&#45;&gt;Product -->
<g id="edge10" class="edge"><title>Brand&#45;&gt;Product</title>
<path fill="none" stroke="#0be75a" d="M267.055,-228.729C268.506,-216.725 270.242,-202.362 271.721,-190.129"/>
<ellipse fill="none" stroke="#0be75a" cx="266.549" cy="-232.913" rx="4.00001" ry="4.00001"/>
<polygon fill="#0be75a" stroke="#0be75a" points="271.74,-189.967 277.408,-180.58 272.34,-185.004 272.94,-180.04 272.94,-180.04 272.94,-180.04 272.34,-185.004 268.473,-179.5 271.74,-189.967 271.74,-189.967"/>
</g>
<!-- Address -->
<g id="node7" class="node"><title>Address</title>
<ellipse fill="none" stroke="black" cx="650" cy="-162" rx="39.4691" ry="18"/>
<text text-anchor="middle" x="650" y="-158.3" font-family="Times,serif" font-size="14.00">Address</text>
</g>
<!-- Page -->
<g id="node10" class="node"><title>Page</title>
<ellipse fill="none" stroke="black" cx="435" cy="-90" rx="27.4223" ry="18"/>
<text text-anchor="middle" x="435" y="-86.3" font-family="Times,serif" font-size="14.00">Page</text>
</g>
<!-- Page&#45;&gt;MenuItem -->
<g id="edge11" class="edge"><title>Page&#45;&gt;MenuItem</title>
<path fill="none" stroke="#4f2b23" d="M425.311,-64.7779C422.818,-58.544 420.122,-51.8046 417.585,-45.4634"/>
<ellipse fill="none" stroke="#4f2b23" cx="426.879" cy="-68.6971" rx="4.00001" ry="4.00001"/>
<polygon fill="#4f2b23" stroke="#4f2b23" points="417.496,-45.241 417.961,-34.2849 415.639,-40.5986 413.782,-35.9562 413.782,-35.9562 413.782,-35.9562 415.639,-40.5986 409.604,-37.6275 417.496,-45.241 417.496,-45.241"/>
</g>
<!-- Order -->
<g id="node12" class="node"><title>Order</title>
<ellipse fill="none" stroke="black" cx="561" cy="-162" rx="31.2965" ry="18"/>
<text text-anchor="middle" x="561" y="-158.3" font-family="Times,serif" font-size="14.00">Order</text>
</g>
<!-- Order&#45;&gt;CartItem -->
<g id="edge12" class="edge"><title>Order&#45;&gt;CartItem</title>
<path fill="none" stroke="#2262bf" d="M561,-135.64C561,-130.063 561,-124.132 561,-118.476"/>
<ellipse fill="none" stroke="#2262bf" cx="561" cy="-139.697" rx="4" ry="4"/>
<polygon fill="#2262bf" stroke="#2262bf" points="561,-118.104 565.5,-108.104 561,-113.104 561,-108.104 561,-108.104 561,-108.104 561,-113.104 556.5,-108.104 561,-118.104 561,-118.104"/>
</g>
<!-- Category&#45;&gt;SiteCategory -->
<g id="edge15" class="edge"><title>Category&#45;&gt;SiteCategory</title>
<path fill="none" stroke="#1fe007" d="M268.141,-75.4558C234.056,-63.8735 184.951,-47.1872 148.964,-34.9588"/>
<ellipse fill="none" stroke="#1fe007" cx="272.025" cy="-76.7755" rx="4.00001" ry="4.00001"/>
<polygon fill="#1fe007" stroke="#1fe007" points="148.654,-34.8534 140.634,-27.3752 143.92,-33.2447 139.186,-31.6359 139.186,-31.6359 139.186,-31.6359 143.92,-33.2447 137.738,-35.8967 148.654,-34.8534 148.654,-34.8534"/>
</g>
<!-- Category&#45;&gt;Categorisation -->
<g id="edge14" class="edge"><title>Category&#45;&gt;Categorisation</title>
<path fill="none" stroke="#d3f84b" d="M291.307,-65.6295C286.431,-58.8031 281.079,-51.3107 276.119,-44.3669"/>
<ellipse fill="none" stroke="#d3f84b" cx="293.826" cy="-69.156" rx="4.00002" ry="4.00002"/>
<polygon fill="#d3f84b" stroke="#d3f84b" points="275.924,-44.0936 273.773,-33.3406 273.018,-40.0249 270.112,-35.9562 270.112,-35.9562 270.112,-35.9562 273.018,-40.0249 266.45,-38.5718 275.924,-44.0936 275.924,-44.0936"/>
</g>
<!-- Category&#45;&gt;MenuItem -->
<g id="edge13" class="edge"><title>Category&#45;&gt;MenuItem</title>
<path fill="none" stroke="#a855bc" d="M335.911,-69.2648C348.763,-60.1777 364.029,-49.3834 377.114,-40.1314"/>
<ellipse fill="none" stroke="#a855bc" cx="332.261" cy="-71.8455" rx="4.00002" ry="4.00002"/>
<polygon fill="#a855bc" stroke="#a855bc" points="377.185,-40.0811 387.949,-37.982 381.268,-37.1944 385.351,-34.3077 385.351,-34.3077 385.351,-34.3077 381.268,-37.1944 382.753,-30.6334 377.185,-40.0811 377.185,-40.0811"/>
</g>
<!-- User -->
<g id="node14" class="node"><title>User</title>
<ellipse fill="none" stroke="black" cx="605" cy="-255" rx="26.949" ry="18"/>
<text text-anchor="middle" x="605" y="-251.3" font-family="Times,serif" font-size="14.00">User</text>
</g>
<!-- User&#45;&gt;Address -->
<g id="edge16" class="edge"><title>User&#45;&gt;Address</title>
<path fill="none" stroke="#c32b39" d="M616.691,-230.359C623.009,-217.582 630.818,-201.79 637.287,-188.708"/>
<ellipse fill="none" stroke="#c32b39" cx="614.818" cy="-234.145" rx="4.00002" ry="4.00002"/>
<polygon fill="#c32b39" stroke="#c32b39" points="637.287,-188.708 645.754,-181.739 639.504,-184.226 641.72,-179.744 641.72,-179.744 641.72,-179.744 639.504,-184.226 637.686,-177.749 637.287,-188.708 637.287,-188.708"/>
</g>
<!-- User&#45;&gt;Order -->
<g id="edge17" class="edge"><title>User&#45;&gt;Order</title>
<path fill="none" stroke="#f03bae" d="M593.546,-230.31C587.386,-217.571 579.782,-201.844 573.473,-188.796"/>
<ellipse fill="none" stroke="#f03bae" cx="595.392" cy="-234.13" rx="4.00002" ry="4.00002"/>
<polygon fill="#f03bae" stroke="#f03bae" points="573.3,-188.438 572.998,-177.476 571.123,-183.936 568.947,-179.435 568.947,-179.435 568.947,-179.435 571.123,-183.936 564.895,-181.394 573.3,-188.438 573.3,-188.438"/>
</g>
</g>
</svg>
