<?xml version="1.0" encoding="UTF-8" standalone="no"?>
<!DOCTYPE svg PUBLIC "-//W3C//DTD SVG 1.1//EN"
 "http://www.w3.org/Graphics/SVG/1.1/DTD/svg11.dtd">
<!-- Generated by graphviz version 2.36.0 (20140111.2315)
 -->
<!-- Title: models_diagram Pages: 1 -->
<svg width="1091pt" height="666pt"
 viewBox="0.00 0.00 1091.00 666.00" xmlns="http://www.w3.org/2000/svg" xmlns:xlink="http://www.w3.org/1999/xlink">
<g id="graph0" class="graph" transform="scale(1 1) rotate(0) translate(4 662)">
<title>models_diagram</title>
<polygon fill="none" stroke="none" points="-4,4 -4,-662 1087,-662 1087,4 -4,4"/>
<!-- _diagram_info -->
<g id="node1" class="node"><title>_diagram_info</title>
<text text-anchor="start" x="8" y="-568.6" font-family="Times,serif" font-size="13.00">Models diagram</text>
<text text-anchor="start" x="8" y="-554.6" font-family="Times,serif" font-size="13.00">Date: Apr 01 2016 &#45; 15:24</text>
<text text-anchor="start" x="8" y="-540.6" font-family="Times,serif" font-size="13.00">Migration version: 20160401132451</text>
<text text-anchor="start" x="8" y="-526.6" font-family="Times,serif" font-size="13.00">Generated by RailRoady 1.4.2</text>
<text text-anchor="start" x="8" y="-512.6" font-family="Times,serif" font-size="13.00">http://railroady.prestonlee.com</text>
</g>
<!-- Site -->
<g id="node2" class="node"><title>Site</title>
<path fill="none" stroke="black" d="M638.5,-506C638.5,-506 745.5,-506 745.5,-506 751.5,-506 757.5,-512 757.5,-518 757.5,-518 757.5,-570 757.5,-570 757.5,-576 751.5,-582 745.5,-582 745.5,-582 638.5,-582 638.5,-582 632.5,-582 626.5,-576 626.5,-570 626.5,-570 626.5,-518 626.5,-518 626.5,-512 632.5,-506 638.5,-506"/>
<text text-anchor="middle" x="692" y="-566.8" font-family="Times,serif" font-size="14.00">Site</text>
<polyline fill="none" stroke="black" points="626.5,-559 757.5,-559 "/>
<text text-anchor="start" x="634.5" y="-543.8" font-family="Times,serif" font-size="14.00">id :INTEGER</text>
<text text-anchor="start" x="634.5" y="-528.8" font-family="Times,serif" font-size="14.00">created_at :datetime</text>
<text text-anchor="start" x="634.5" y="-513.8" font-family="Times,serif" font-size="14.00">updated_at :datetime</text>
</g>
<!-- Product -->
<g id="node3" class="node"><title>Product</title>
<path fill="none" stroke="black" d="M244.5,-302.5C244.5,-302.5 351.5,-302.5 351.5,-302.5 357.5,-302.5 363.5,-308.5 363.5,-314.5 363.5,-314.5 363.5,-381.5 363.5,-381.5 363.5,-387.5 357.5,-393.5 351.5,-393.5 351.5,-393.5 244.5,-393.5 244.5,-393.5 238.5,-393.5 232.5,-387.5 232.5,-381.5 232.5,-381.5 232.5,-314.5 232.5,-314.5 232.5,-308.5 238.5,-302.5 244.5,-302.5"/>
<text text-anchor="middle" x="298" y="-378.3" font-family="Times,serif" font-size="14.00">Product</text>
<polyline fill="none" stroke="black" points="232.5,-370.5 363.5,-370.5 "/>
<text text-anchor="start" x="240.5" y="-355.3" font-family="Times,serif" font-size="14.00">id :INTEGER</text>
<text text-anchor="start" x="240.5" y="-340.3" font-family="Times,serif" font-size="14.00">brand_id :integer</text>
<text text-anchor="start" x="240.5" y="-325.3" font-family="Times,serif" font-size="14.00">created_at :datetime</text>
<text text-anchor="start" x="240.5" y="-310.3" font-family="Times,serif" font-size="14.00">updated_at :datetime</text>
</g>
<!-- Site&#45;&gt;Product -->
<g id="edge4" class="edge"><title>Site&#45;&gt;Product</title>
<path fill="none" stroke="#cac11f" d="M617.314,-506.226C547.249,-471.727 443.026,-420.409 372.894,-385.877"/>
<polygon fill="#cac11f" stroke="#cac11f" points="617.525,-506.33 624.509,-514.784 622.011,-508.538 626.497,-510.747 626.497,-510.747 626.497,-510.747 622.011,-508.538 628.484,-506.71 617.525,-506.33 617.525,-506.33"/>
<polygon fill="#cac11f" stroke="#cac11f" points="372.631,-385.748 365.648,-377.293 368.146,-383.539 363.66,-381.33 363.66,-381.33 363.66,-381.33 368.146,-383.539 361.672,-385.367 372.631,-385.748 372.631,-385.748"/>
</g>
<!-- MenuItem -->
<g id="node8" class="node"><title>MenuItem</title>
<path fill="none" stroke="black" d="M347.5,-0.5C347.5,-0.5 480.5,-0.5 480.5,-0.5 486.5,-0.5 492.5,-6.5 492.5,-12.5 492.5,-12.5 492.5,-109.5 492.5,-109.5 492.5,-115.5 486.5,-121.5 480.5,-121.5 480.5,-121.5 347.5,-121.5 347.5,-121.5 341.5,-121.5 335.5,-115.5 335.5,-109.5 335.5,-109.5 335.5,-12.5 335.5,-12.5 335.5,-6.5 341.5,-0.5 347.5,-0.5"/>
<text text-anchor="middle" x="414" y="-106.3" font-family="Times,serif" font-size="14.00">MenuItem</text>
<polyline fill="none" stroke="black" points="335.5,-98.5 492.5,-98.5 "/>
<text text-anchor="start" x="343.5" y="-83.3" font-family="Times,serif" font-size="14.00">id :INTEGER</text>
<text text-anchor="start" x="343.5" y="-68.3" font-family="Times,serif" font-size="14.00">site_id :integer</text>
<text text-anchor="start" x="343.5" y="-53.3" font-family="Times,serif" font-size="14.00">menu_item_id :integer</text>
<text text-anchor="start" x="343.5" y="-38.3" font-family="Times,serif" font-size="14.00">menu_item_type :varchar</text>
<text text-anchor="start" x="343.5" y="-23.3" font-family="Times,serif" font-size="14.00">created_at :datetime</text>
<text text-anchor="start" x="343.5" y="-8.3" font-family="Times,serif" font-size="14.00">updated_at :datetime</text>
</g>
<!-- Site&#45;&gt;MenuItem -->
<g id="edge1" class="edge"><title>Site&#45;&gt;MenuItem</title>
<path fill="none" stroke="#c06ac5" d="M701.969,-497.703C720.651,-407.786 755.707,-210.867 717,-158 703.869,-140.066 587.244,-106.679 502.599,-84.3951"/>
<ellipse fill="none" stroke="#c06ac5" cx="701.091" cy="-501.889" rx="4.00001" ry="4.00001"/>
<polygon fill="#c06ac5" stroke="#c06ac5" points="502.377,-84.337 493.845,-77.449 497.541,-83.0695 492.704,-81.802 492.704,-81.802 492.704,-81.802 497.541,-83.0695 491.563,-86.155 502.377,-84.337 502.377,-84.337"/>
</g>
<!-- Category -->
<g id="node12" class="node"><title>Category</title>
<path fill="none" stroke="black" d="M291.5,-174C291.5,-174 398.5,-174 398.5,-174 404.5,-174 410.5,-180 410.5,-186 410.5,-186 410.5,-238 410.5,-238 410.5,-244 404.5,-250 398.5,-250 398.5,-250 291.5,-250 291.5,-250 285.5,-250 279.5,-244 279.5,-238 279.5,-238 279.5,-186 279.5,-186 279.5,-180 285.5,-174 291.5,-174"/>
<text text-anchor="middle" x="345" y="-234.8" font-family="Times,serif" font-size="14.00">Category</text>
<polyline fill="none" stroke="black" points="279.5,-227 410.5,-227 "/>
<text text-anchor="start" x="287.5" y="-211.8" font-family="Times,serif" font-size="14.00">id :INTEGER</text>
<text text-anchor="start" x="287.5" y="-196.8" font-family="Times,serif" font-size="14.00">created_at :datetime</text>
<text text-anchor="start" x="287.5" y="-181.8" font-family="Times,serif" font-size="14.00">updated_at :datetime</text>
</g>
<!-- Site&#45;&gt;Category -->
<g id="edge3" class="edge"><title>Site&#45;&gt;Category</title>
<path fill="none" stroke="#b6f191" d="M645.574,-498.848C579.176,-435.703 457.802,-320.276 391.412,-257.139"/>
<polygon fill="#b6f191" stroke="#b6f191" points="645.623,-498.895 649.768,-509.047 649.246,-502.341 652.869,-505.786 652.869,-505.786 652.869,-505.786 649.246,-502.341 655.97,-502.525 645.623,-498.895 645.623,-498.895"/>
<polygon fill="#b6f191" stroke="#b6f191" points="391.234,-256.969 387.089,-246.817 387.611,-253.523 383.988,-250.078 383.988,-250.078 383.988,-250.078 387.611,-253.523 380.887,-253.339 391.234,-256.969 391.234,-256.969"/>
</g>
<!-- SiteCategory -->
<g id="node14" class="node"><title>SiteCategory</title>
<ellipse fill="none" stroke="black" cx="705" cy="-61" rx="56.3173" ry="18"/>
<text text-anchor="middle" x="705" y="-57.3" font-family="Times,serif" font-size="14.00">SiteCategory</text>
</g>
<!-- Site&#45;&gt;SiteCategory -->
<g id="edge2" class="edge"><title>Site&#45;&gt;SiteCategory</title>
<path fill="none" stroke="#3d0396" d="M714.799,-498.403C728.279,-469.475 744.036,-430.502 751,-394 770.656,-290.969 774.24,-260.282 751,-158 745.255,-132.716 731.991,-106.312 721.175,-87.6097"/>
<ellipse fill="none" stroke="#3d0396" cx="712.958" cy="-502.293" rx="4.00002" ry="4.00002"/>
<polygon fill="#3d0396" stroke="#3d0396" points="721.066,-87.4255 719.818,-76.5308 718.508,-83.129 715.951,-78.8325 715.951,-78.8325 715.951,-78.8325 718.508,-83.129 712.084,-81.1341 721.066,-87.4255 721.066,-87.4255"/>
</g>
<!-- Categorisation -->
<g id="node5" class="node"><title>Categorisation</title>
<path fill="none" stroke="black" d="M138.5,-8C138.5,-8 245.5,-8 245.5,-8 251.5,-8 257.5,-14 257.5,-20 257.5,-20 257.5,-102 257.5,-102 257.5,-108 251.5,-114 245.5,-114 245.5,-114 138.5,-114 138.5,-114 132.5,-114 126.5,-108 126.5,-102 126.5,-102 126.5,-20 126.5,-20 126.5,-14 132.5,-8 138.5,-8"/>
<text text-anchor="middle" x="192" y="-98.8" font-family="Times,serif" font-size="14.00">Categorisation</text>
<polyline fill="none" stroke="black" points="126.5,-91 257.5,-91 "/>
<text text-anchor="start" x="134.5" y="-75.8" font-family="Times,serif" font-size="14.00">id :INTEGER</text>
<text text-anchor="start" x="134.5" y="-60.8" font-family="Times,serif" font-size="14.00">product_id :integer</text>
<text text-anchor="start" x="134.5" y="-45.8" font-family="Times,serif" font-size="14.00">category_id :integer</text>
<text text-anchor="start" x="134.5" y="-30.8" font-family="Times,serif" font-size="14.00">created_at :datetime</text>
<text text-anchor="start" x="134.5" y="-15.8" font-family="Times,serif" font-size="14.00">updated_at :datetime</text>
</g>
<!-- Product&#45;&gt;Categorisation -->
<g id="edge8" class="edge"><title>Product&#45;&gt;Categorisation</title>
<path fill="none" stroke="#08baa0" d="M224.271,-340.471C175.09,-331.843 113.82,-311.916 82,-266 54.6594,-226.548 62.1375,-201.698 82,-158 90.2173,-139.922 103.707,-123.918 118.473,-110.412"/>
<ellipse fill="none" stroke="#08baa0" cx="228.419" cy="-341.156" rx="4.00001" ry="4.00001"/>
<polygon fill="#08baa0" stroke="#08baa0" points="118.76,-110.16 129.251,-106.967 122.525,-106.869 126.289,-103.579 126.289,-103.579 126.289,-103.579 122.525,-106.869 123.328,-100.191 118.76,-110.16 118.76,-110.16"/>
</g>
<!-- ProductImage -->
<g id="node7" class="node"><title>ProductImage</title>
<path fill="none" stroke="black" d="M103.5,-166.5C103.5,-166.5 210.5,-166.5 210.5,-166.5 216.5,-166.5 222.5,-172.5 222.5,-178.5 222.5,-178.5 222.5,-245.5 222.5,-245.5 222.5,-251.5 216.5,-257.5 210.5,-257.5 210.5,-257.5 103.5,-257.5 103.5,-257.5 97.5,-257.5 91.5,-251.5 91.5,-245.5 91.5,-245.5 91.5,-178.5 91.5,-178.5 91.5,-172.5 97.5,-166.5 103.5,-166.5"/>
<text text-anchor="middle" x="157" y="-242.3" font-family="Times,serif" font-size="14.00">ProductImage</text>
<polyline fill="none" stroke="black" points="91.5,-234.5 222.5,-234.5 "/>
<text text-anchor="start" x="99.5" y="-219.3" font-family="Times,serif" font-size="14.00">id :INTEGER</text>
<text text-anchor="start" x="99.5" y="-204.3" font-family="Times,serif" font-size="14.00">product_id :integer</text>
<text text-anchor="start" x="99.5" y="-189.3" font-family="Times,serif" font-size="14.00">created_at :datetime</text>
<text text-anchor="start" x="99.5" y="-174.3" font-family="Times,serif" font-size="14.00">updated_at :datetime</text>
</g>
<!-- Product&#45;&gt;ProductImage -->
<g id="edge6" class="edge"><title>Product&#45;&gt;ProductImage</title>
<path fill="none" stroke="#a7475c" d="M244.97,-296.603C234.095,-286.268 222.628,-275.37 211.696,-264.981"/>
<ellipse fill="none" stroke="#a7475c" cx="248.15" cy="-299.624" rx="4.00002" ry="4.00002"/>
<polygon fill="#a7475c" stroke="#a7475c" points="211.475,-264.771 207.327,-254.62 207.851,-261.327 204.227,-257.882 204.227,-257.882 204.227,-257.882 207.851,-261.327 201.127,-261.144 211.475,-264.771 211.475,-264.771"/>
</g>
<!-- Product&#45;&gt;MenuItem -->
<g id="edge7" class="edge"><title>Product&#45;&gt;MenuItem</title>
<path fill="none" stroke="#c2a0a7" d="M274.236,-294.621C259.955,-254.938 248.488,-200.228 271,-158 283.536,-134.486 304.673,-115.709 326.903,-101.221"/>
<ellipse fill="none" stroke="#c2a0a7" cx="275.722" cy="-298.602" rx="4.00001" ry="4.00001"/>
<polygon fill="#c2a0a7" stroke="#c2a0a7" points="326.979,-101.174 337.844,-99.695 331.22,-98.5261 335.461,-95.8779 335.461,-95.8779 335.461,-95.8779 331.22,-98.5261 333.078,-92.0609 326.979,-101.174 326.979,-101.174"/>
</g>
<!-- CartItem -->
<g id="node10" class="node"><title>CartItem</title>
<path fill="none" stroke="black" d="M589.5,-159C589.5,-159 696.5,-159 696.5,-159 702.5,-159 708.5,-165 708.5,-171 708.5,-171 708.5,-253 708.5,-253 708.5,-259 702.5,-265 696.5,-265 696.5,-265 589.5,-265 589.5,-265 583.5,-265 577.5,-259 577.5,-253 577.5,-253 577.5,-171 577.5,-171 577.5,-165 583.5,-159 589.5,-159"/>
<text text-anchor="middle" x="643" y="-249.8" font-family="Times,serif" font-size="14.00">CartItem</text>
<polyline fill="none" stroke="black" points="577.5,-242 708.5,-242 "/>
<text text-anchor="start" x="585.5" y="-226.8" font-family="Times,serif" font-size="14.00">id :INTEGER</text>
<text text-anchor="start" x="585.5" y="-211.8" font-family="Times,serif" font-size="14.00">order_id :integer</text>
<text text-anchor="start" x="585.5" y="-196.8" font-family="Times,serif" font-size="14.00">product_id :integer</text>
<text text-anchor="start" x="585.5" y="-181.8" font-family="Times,serif" font-size="14.00">created_at :datetime</text>
<text text-anchor="start" x="585.5" y="-166.8" font-family="Times,serif" font-size="14.00">updated_at :datetime</text>
</g>
<!-- Product&#45;&gt;CartItem -->
<g id="edge5" class="edge"><title>Product&#45;&gt;CartItem</title>
<path fill="none" stroke="#904e4a" d="M371.808,-331.69C427.476,-318.539 504.785,-296.796 568,-266 568.197,-265.904 568.394,-265.807 568.591,-265.71"/>
<ellipse fill="none" stroke="#904e4a" cx="367.651" cy="-332.659" rx="4.00001" ry="4.00001"/>
<polygon fill="#904e4a" stroke="#904e4a" points="568.619,-265.696 579.565,-265.026 573.045,-263.369 577.471,-261.043 577.471,-261.043 577.471,-261.043 573.045,-263.369 575.376,-257.059 568.619,-265.696 568.619,-265.696"/>
</g>
<!-- Product&#45;&gt;Category -->
<g id="edge9" class="edge"><title>Product&#45;&gt;Category</title>
<path fill="none" stroke="#90880f" d="M317.053,-292.679C320.877,-281.775 324.865,-270.405 328.591,-259.783"/>
<polygon fill="#90880f" stroke="#90880f" points="316.96,-292.944 309.404,-300.891 315.305,-297.662 313.65,-302.38 313.65,-302.38 313.65,-302.38 315.305,-297.662 317.897,-303.869 316.96,-292.944 316.96,-292.944"/>
<polygon fill="#90880f" stroke="#90880f" points="328.617,-259.71 336.173,-251.763 330.271,-254.992 331.926,-250.274 331.926,-250.274 331.926,-250.274 330.271,-254.992 327.68,-248.784 328.617,-259.71 328.617,-259.71"/>
</g>
<!-- Brand -->
<g id="node4" class="node"><title>Brand</title>
<path fill="none" stroke="black" d="M244.5,-506C244.5,-506 351.5,-506 351.5,-506 357.5,-506 363.5,-512 363.5,-518 363.5,-518 363.5,-570 363.5,-570 363.5,-576 357.5,-582 351.5,-582 351.5,-582 244.5,-582 244.5,-582 238.5,-582 232.5,-576 232.5,-570 232.5,-570 232.5,-518 232.5,-518 232.5,-512 238.5,-506 244.5,-506"/>
<text text-anchor="middle" x="298" y="-566.8" font-family="Times,serif" font-size="14.00">Brand</text>
<polyline fill="none" stroke="black" points="232.5,-559 363.5,-559 "/>
<text text-anchor="start" x="240.5" y="-543.8" font-family="Times,serif" font-size="14.00">id :INTEGER</text>
<text text-anchor="start" x="240.5" y="-528.8" font-family="Times,serif" font-size="14.00">created_at :datetime</text>
<text text-anchor="start" x="240.5" y="-513.8" font-family="Times,serif" font-size="14.00">updated_at :datetime</text>
</g>
<!-- Brand&#45;&gt;Product -->
<g id="edge10" class="edge"><title>Brand&#45;&gt;Product</title>
<path fill="none" stroke="#679123" d="M298,-497.467C298,-469.497 298,-433.49 298,-403.94"/>
<ellipse fill="none" stroke="#679123" cx="298" cy="-501.595" rx="4" ry="4"/>
<polygon fill="#679123" stroke="#679123" points="298,-403.782 302.5,-393.782 298,-398.782 298,-393.782 298,-393.782 298,-393.782 298,-398.782 293.5,-393.782 298,-403.782 298,-403.782"/>
</g>
<!-- Address -->
<g id="node6" class="node"><title>Address</title>
<path fill="none" stroke="black" d="M964.5,-302.5C964.5,-302.5 1071.5,-302.5 1071.5,-302.5 1077.5,-302.5 1083.5,-308.5 1083.5,-314.5 1083.5,-314.5 1083.5,-381.5 1083.5,-381.5 1083.5,-387.5 1077.5,-393.5 1071.5,-393.5 1071.5,-393.5 964.5,-393.5 964.5,-393.5 958.5,-393.5 952.5,-387.5 952.5,-381.5 952.5,-381.5 952.5,-314.5 952.5,-314.5 952.5,-308.5 958.5,-302.5 964.5,-302.5"/>
<text text-anchor="middle" x="1018" y="-378.3" font-family="Times,serif" font-size="14.00">Address</text>
<polyline fill="none" stroke="black" points="952.5,-370.5 1083.5,-370.5 "/>
<text text-anchor="start" x="960.5" y="-355.3" font-family="Times,serif" font-size="14.00">id :INTEGER</text>
<text text-anchor="start" x="960.5" y="-340.3" font-family="Times,serif" font-size="14.00">user_id :integer</text>
<text text-anchor="start" x="960.5" y="-325.3" font-family="Times,serif" font-size="14.00">created_at :datetime</text>
<text text-anchor="start" x="960.5" y="-310.3" font-family="Times,serif" font-size="14.00">updated_at :datetime</text>
</g>
<!-- Page -->
<g id="node9" class="node"><title>Page</title>
<path fill="none" stroke="black" d="M440.5,-166.5C440.5,-166.5 547.5,-166.5 547.5,-166.5 553.5,-166.5 559.5,-172.5 559.5,-178.5 559.5,-178.5 559.5,-245.5 559.5,-245.5 559.5,-251.5 553.5,-257.5 547.5,-257.5 547.5,-257.5 440.5,-257.5 440.5,-257.5 434.5,-257.5 428.5,-251.5 428.5,-245.5 428.5,-245.5 428.5,-178.5 428.5,-178.5 428.5,-172.5 434.5,-166.5 440.5,-166.5"/>
<text text-anchor="middle" x="494" y="-242.3" font-family="Times,serif" font-size="14.00">Page</text>
<polyline fill="none" stroke="black" points="428.5,-234.5 559.5,-234.5 "/>
<text text-anchor="start" x="436.5" y="-219.3" font-family="Times,serif" font-size="14.00">id :INTEGER</text>
<text text-anchor="start" x="436.5" y="-204.3" font-family="Times,serif" font-size="14.00">site_id :integer</text>
<text text-anchor="start" x="436.5" y="-189.3" font-family="Times,serif" font-size="14.00">created_at :datetime</text>
<text text-anchor="start" x="436.5" y="-174.3" font-family="Times,serif" font-size="14.00">updated_at :datetime</text>
</g>
<!-- Page&#45;&gt;MenuItem -->
<g id="edge11" class="edge"><title>Page&#45;&gt;MenuItem</title>
<path fill="none" stroke="#9fb27d" d="M466.032,-158.909C461.124,-149.768 455.949,-140.13 450.844,-130.622"/>
<ellipse fill="none" stroke="#9fb27d" cx="468.105" cy="-162.771" rx="4.00002" ry="4.00002"/>
<polygon fill="#9fb27d" stroke="#9fb27d" points="450.711,-130.375 449.946,-119.436 448.346,-125.97 445.981,-121.565 445.981,-121.565 445.981,-121.565 448.346,-125.97 442.016,-123.693 450.711,-130.375 450.711,-130.375"/>
</g>
<!-- Order -->
<g id="node11" class="node"><title>Order</title>
<path fill="none" stroke="black" d="M815.5,-302.5C815.5,-302.5 922.5,-302.5 922.5,-302.5 928.5,-302.5 934.5,-308.5 934.5,-314.5 934.5,-314.5 934.5,-381.5 934.5,-381.5 934.5,-387.5 928.5,-393.5 922.5,-393.5 922.5,-393.5 815.5,-393.5 815.5,-393.5 809.5,-393.5 803.5,-387.5 803.5,-381.5 803.5,-381.5 803.5,-314.5 803.5,-314.5 803.5,-308.5 809.5,-302.5 815.5,-302.5"/>
<text text-anchor="middle" x="869" y="-378.3" font-family="Times,serif" font-size="14.00">Order</text>
<polyline fill="none" stroke="black" points="803.5,-370.5 934.5,-370.5 "/>
<text text-anchor="start" x="811.5" y="-355.3" font-family="Times,serif" font-size="14.00">id :INTEGER</text>
<text text-anchor="start" x="811.5" y="-340.3" font-family="Times,serif" font-size="14.00">user_id :integer</text>
<text text-anchor="start" x="811.5" y="-325.3" font-family="Times,serif" font-size="14.00">created_at :datetime</text>
<text text-anchor="start" x="811.5" y="-310.3" font-family="Times,serif" font-size="14.00">updated_at :datetime</text>
</g>
<!-- Order&#45;&gt;CartItem -->
<g id="edge12" class="edge"><title>Order&#45;&gt;CartItem</title>
<path fill="none" stroke="#8cb8dd" d="M796.271,-303.878C771.134,-288.973 742.938,-272.255 717.65,-257.261"/>
<ellipse fill="none" stroke="#8cb8dd" cx="799.887" cy="-306.022" rx="4.00002" ry="4.00002"/>
<polygon fill="#8cb8dd" stroke="#8cb8dd" points="717.438,-257.136 711.131,-248.165 713.137,-254.586 708.836,-252.035 708.836,-252.035 708.836,-252.035 713.137,-254.586 706.541,-255.906 717.438,-257.136 717.438,-257.136"/>
</g>
<!-- Category&#45;&gt;Categorisation -->
<g id="edge14" class="edge"><title>Category&#45;&gt;Categorisation</title>
<path fill="none" stroke="#61a9f4" d="M301.032,-168.182C286.034,-153.575 268.985,-136.972 252.898,-121.306"/>
<ellipse fill="none" stroke="#61a9f4" cx="303.921" cy="-170.995" rx="4.00002" ry="4.00002"/>
<polygon fill="#61a9f4" stroke="#61a9f4" points="252.749,-121.161 248.725,-110.96 249.167,-117.673 245.585,-114.184 245.585,-114.184 245.585,-114.184 249.167,-117.673 242.445,-117.408 252.749,-121.161 252.749,-121.161"/>
</g>
<!-- Category&#45;&gt;MenuItem -->
<g id="edge13" class="edge"><title>Category&#45;&gt;MenuItem</title>
<path fill="none" stroke="#2666b7" d="M365.752,-166.187C370.924,-155.018 376.589,-142.785 382.161,-130.753"/>
<ellipse fill="none" stroke="#2666b7" cx="363.915" cy="-170.156" rx="4.00002" ry="4.00002"/>
<polygon fill="#2666b7" stroke="#2666b7" points="382.192,-130.687 390.478,-123.503 384.293,-126.149 386.394,-121.612 386.394,-121.612 386.394,-121.612 384.293,-126.149 382.311,-119.721 382.192,-130.687 382.192,-130.687"/>
</g>
<!-- Category&#45;&gt;SiteCategory -->
<g id="edge15" class="edge"><title>Category&#45;&gt;SiteCategory</title>
<path fill="none" stroke="#3e4fe3" d="M400.294,-169.295C406.774,-165.206 413.423,-161.341 420,-158 496.785,-118.992 592.948,-90.3947 651.635,-74.9883"/>
<ellipse fill="none" stroke="#3e4fe3" cx="396.695" cy="-171.63" rx="4.00002" ry="4.00002"/>
<polygon fill="#3e4fe3" stroke="#3e4fe3" points="651.753,-74.9577 662.563,-76.8033 656.593,-73.7025 661.433,-72.4474 661.433,-72.4474 661.433,-72.4474 656.593,-73.7025 660.303,-68.0915 651.753,-74.9577 651.753,-74.9577"/>
</g>
<!-- User -->
<g id="node13" class="node"><title>User</title>
<path fill="none" stroke="black" d="M846,-431C846,-431 982,-431 982,-431 988,-431 994,-437 994,-443 994,-443 994,-645 994,-645 994,-651 988,-657 982,-657 982,-657 846,-657 846,-657 840,-657 834,-651 834,-645 834,-645 834,-443 834,-443 834,-437 840,-431 846,-431"/>
<text text-anchor="middle" x="914" y="-641.8" font-family="Times,serif" font-size="14.00">User</text>
<polyline fill="none" stroke="black" points="834,-634 994,-634 "/>
<text text-anchor="start" x="842" y="-618.8" font-family="Times,serif" font-size="14.00">id :INTEGER</text>
<text text-anchor="start" x="842" y="-603.8" font-family="Times,serif" font-size="14.00">name :varchar</text>
<text text-anchor="start" x="842" y="-588.8" font-family="Times,serif" font-size="14.00">email :varchar</text>
<text text-anchor="start" x="842" y="-573.8" font-family="Times,serif" font-size="14.00">password_digest :varchar</text>
<text text-anchor="start" x="842" y="-558.8" font-family="Times,serif" font-size="14.00">admin :boolean</text>
<text text-anchor="start" x="842" y="-543.8" font-family="Times,serif" font-size="14.00">remember_digest :varchar</text>
<text text-anchor="start" x="842" y="-528.8" font-family="Times,serif" font-size="14.00">activation_digest :varchar</text>
<text text-anchor="start" x="842" y="-513.8" font-family="Times,serif" font-size="14.00">activated :boolean</text>
<text text-anchor="start" x="842" y="-498.8" font-family="Times,serif" font-size="14.00">activated_at :datetime</text>
<text text-anchor="start" x="842" y="-483.8" font-family="Times,serif" font-size="14.00">reset_digest :varchar</text>
<text text-anchor="start" x="842" y="-468.8" font-family="Times,serif" font-size="14.00">reset_sent_at :datetime</text>
<text text-anchor="start" x="842" y="-453.8" font-family="Times,serif" font-size="14.00">created_at :datetime</text>
<text text-anchor="start" x="842" y="-438.8" font-family="Times,serif" font-size="14.00">updated_at :datetime</text>
</g>
<!-- User&#45;&gt;Address -->
<g id="edge16" class="edge"><title>User&#45;&gt;Address</title>
<path fill="none" stroke="#f037ec" d="M977.973,-423.666C981.845,-416.443 985.623,-409.395 989.216,-402.694"/>
<ellipse fill="none" stroke="#f037ec" cx="975.935" cy="-427.467" rx="4.00002" ry="4.00002"/>
<polygon fill="#f037ec" stroke="#f037ec" points="989.266,-402.601 997.956,-395.913 991.628,-398.194 993.99,-393.787 993.99,-393.787 993.99,-393.787 991.628,-398.194 990.024,-391.661 989.266,-402.601 989.266,-402.601"/>
</g>
<!-- User&#45;&gt;Order -->
<g id="edge17" class="edge"><title>User&#45;&gt;Order</title>
<path fill="none" stroke="#32738f" d="M886.179,-423.061C884.65,-416.469 883.156,-410.027 881.727,-403.866"/>
<ellipse fill="none" stroke="#32738f" cx="887.115" cy="-427.096" rx="4.00001" ry="4.00001"/>
<polygon fill="#32738f" stroke="#32738f" points="881.648,-403.529 883.772,-392.77 880.519,-398.658 879.389,-393.787 879.389,-393.787 879.389,-393.787 880.519,-398.658 875.005,-394.804 881.648,-403.529 881.648,-403.529"/>
</g>
</g>
</svg>
